<?xml version='1.0' encoding='iso-8859-1'?>
<!DOCTYPE svg PUBLIC '-//W3C//DTD SVG 1.1//EN' 'http://www.w3.org/Graphics/SVG/1.1/DTD/svg11.dtd'>
<!-- Uploaded to: SVG Repo, www.svgrepo.com, Generator: SVG Repo Mixer Tools -->
<svg fill="#000000" height="800px" width="800px" version="1.1" xmlns="http://www.w3.org/2000/svg" viewBox="0 0 468.29 468.29" xmlns:xlink="http://www.w3.org/1999/xlink" enable-background="new 0 0 468.29 468.29">
  <path d="m455.79,297.42h-11.294c20.444-62.764 18.423-126.202-6.099-188.833-1.876-4.79-6.495-7.942-11.64-7.942h-46.63c1.573-2.091 2.517-4.682 2.517-7.5 0-6.903-5.597-12.5-12.5-12.5h-72c-6.903,0-12.5,5.597-12.5,12.5 0,2.818 0.944,5.409 2.517,7.5h-108.033c1.573-2.091 2.517-4.682 2.517-7.5 0-6.903-5.597-12.5-12.5-12.5h-72c-6.903,0-12.5,5.597-12.5,12.5 0,2.818 0.944,5.409 2.517,7.5h-46.63c-5.145,0-9.764,3.152-11.64,7.942-24.521,62.631-26.542,126.069-6.098,188.833h-11.294c-6.904,0-12.5,5.596-12.5,12.5s5.596,12.5 12.5,12.5h18.619c-3.032,6.06-4.749,12.888-4.749,20.113 0,24.875 20.237,45.112 45.113,45.112 12.816,0 24.392-5.381 32.612-13.992 8.22,8.611 19.796,13.992 32.613,13.992 24.875,0 45.112-20.237 45.112-45.112 0-7.225-1.717-14.053-4.749-20.113h114.146c-3.032,6.06-4.749,12.888-4.749,20.113 0,24.875 20.237,45.112 45.112,45.112 12.816,0 24.392-5.381 32.612-13.992 8.221,8.611 19.797,13.992 32.613,13.992 24.875,0 45.112-20.237 45.112-45.112 0-7.225-1.717-14.053-4.749-20.113h18.619c6.903,0 12.5-5.596 12.5-12.5s-5.594-12.5-12.497-12.5zm-405.595-171.775h367.899c10.238,28.593 15.424,57.447 15.424,85.888 0,28.44-5.186,57.294-15.424,85.887h-367.899c-10.238-28.593-15.424-57.447-15.424-85.887 0-28.441 5.186-57.295 15.424-85.888zm21.288,237c-11.09,0-20.113-9.022-20.113-20.112 0-11.09 9.022-20.113 20.113-20.113 11.09,0 20.112,9.022 20.112,20.113 0.001,11.09-9.022,20.112-20.112,20.112zm85.338-20.112c0,11.09-9.022,20.112-20.112,20.112-11.09,0-20.113-9.022-20.113-20.112 0-11.09 9.022-20.113 20.113-20.113 11.089,0 20.112,9.022 20.112,20.113zm174.761,20.112c-11.09,0-20.112-9.022-20.112-20.112 0-11.09 9.022-20.113 20.112-20.113s20.112,9.022 20.112,20.113c0,11.09-9.022,20.112-20.112,20.112zm65.226,0c-11.091,0-20.113-9.022-20.113-20.112 0-11.09 9.022-20.113 20.113-20.113 11.09,0 20.112,9.022 20.112,20.113 0,11.09-9.023,20.112-20.112,20.112z"/>
</svg>