<?xml version='1.0' encoding='iso-8859-1'?>
<!DOCTYPE svg PUBLIC '-//W3C//DTD SVG 1.1//EN' 'http://www.w3.org/Graphics/SVG/1.1/DTD/svg11.dtd'>
<!-- Uploaded to: SVG Repo, www.svgrepo.com, Generator: SVG Repo Mixer Tools -->
<svg fill="#000000" height="800px" width="800px" version="1.1" xmlns="http://www.w3.org/2000/svg" viewBox="0 0 477.532 477.532" xmlns:xlink="http://www.w3.org/1999/xlink" enable-background="new 0 0 477.532 477.532">
  <g>
    <path d="m400.397,285.85c-14.234,0-27.051,6.176-35.918,15.988-8.867-9.811-21.684-15.988-35.918-15.988-18.582,0-34.743,10.528-42.857,25.927h-119.179v-169.198c0-6.904-5.596-12.5-12.5-12.5h-113.569c-5.487,0-10.333,3.579-11.947,8.823l-27.956,90.844c-0.366,1.191-0.553,2.431-0.553,3.677v90.855c0,6.904 5.596,12.5 12.5,12.5h44.343c1.31,25.536 22.497,45.908 48.353,45.908s47.043-20.372 48.353-45.908h0.476c0.002,0 0.003,0 0.005,0h126.178c1.31,25.536 22.498,45.909 48.353,45.909 14.234,0 27.051-6.176 35.918-15.987 8.867,9.811 21.684,15.987 35.918,15.987 26.697,0 48.418-21.72 48.418-48.418s-21.721-48.419-48.418-48.419zm-350.709-130.771h38.058v65.842h-58.32l20.262-65.842zm55.508,202.608c-12.913,0-23.418-10.505-23.418-23.418 0-12.913 10.505-23.418 23.418-23.418s23.418,10.505 23.418,23.418c0,12.912-10.506,23.418-23.418,23.418zm0-71.837c-18.582,0-34.744,10.528-42.858,25.928h-37.338v-65.858h75.245c6.904,0 12.5-5.596 12.5-12.5v-78.342h28.78v147.233c-8.879-10.081-21.87-16.461-36.329-16.461zm223.365,71.837c-12.913,0-23.418-10.505-23.418-23.418 0-12.913 10.505-23.418 23.418-23.418s23.418,10.505 23.418,23.418c0,12.912-10.505,23.418-23.418,23.418zm71.836,0c-12.913,0-23.418-10.505-23.418-23.418 0-12.913 10.505-23.418 23.418-23.418s23.418,10.505 23.418,23.418c0,12.912-10.505,23.418-23.418,23.418z"/>
    <path d="m469.174,123.393l-79.271-27.842c-1.331-0.468-2.731-0.706-4.143-0.706h-138.476c-2.028,0-4.026,0.494-5.822,1.438l-52.897,27.842c-4.107,2.162-6.678,6.421-6.678,11.062v99.395c0,4.641 2.571,8.9 6.678,11.061l52.897,27.842c1.796,0.945 3.794,1.438 5.822,1.438h138.478c1.411,0 2.812-0.239 4.143-0.706l79.271-27.842c5.007-1.759 8.357-6.487 8.357-11.794v-99.395c-0.001-5.306-3.352-10.034-8.359-11.793zm-209.39-3.548h113.478v130.078h-113.478v-130.078zm-52.898,22.889l27.898-14.684v113.669l-27.898-14.684v-84.301zm245.646,82.989l-54.271,19.061v-119.8l54.271,19.061v81.678z"/>
  </g>
</svg>