<svg xmlns="http://www.w3.org/2000/svg" viewBox="0 0 422.11 162"><defs><style>.cls-1{fill:#006436;stroke:#006436;}.cls-1,.cls-2,.cls-3,.cls-4{stroke-miterlimit:18.14;stroke-width:2.6px;}.cls-2{fill:#141414;}.cls-2,.cls-4{stroke:#141414;}.cls-3,.cls-4{fill:none;}.cls-3{stroke:#000;}.cls-5{fill:#fff;}.cls-6{fill:#efbc05;}</style></defs><g id="Capa_2" data-name="Capa 2"><g id="Capa_1-2" data-name="Capa 1"><g id="Camión-1"><path class="cls-1" d="M44.6,11.5S21.4,32.7,23.5,63.9s16.4,48.3,16.4,48.3l-23.7.4-.2,7.7-8.7.3-.1-3.9a11.91,11.91,0,0,0-5.9,10.1c-.1,7.2,4.9,9.8,4.9,9.8l.1-4.5,46,.4L53,159l31.9-.8-.7-24.4s-1-1.6,5.4-4.6a48.43,48.43,0,0,1,13.3-3.6l224-.5,8.5-.1,1.2,33.8,33.5-.6-.2-24.1,43.7-.8.3,4.4s7.2-4.3,6.9-11.6a11.45,11.45,0,0,0-6.6-9.9l.2,3.9-7.6.1v-7.1l-25.6.1s20-21.2,18.5-52.6-21.8-48.3-21.8-48.3l-23.7.1a9.12,9.12,0,0,0-3.1-7.2c-3.5-3.1-6.1-2.6-6.1-2.6l-48.4-.4s-3,0-5.9,3.6-2.2,5.3-2.2,5.3l-158.1.2a7.39,7.39,0,0,0-1.1-6.1,8.41,8.41,0,0,0-5.6-3.6L78.8,1.3a11.77,11.77,0,0,0-8.3,3.4c-3.4,3.6-2.3,6.5-2.3,6.5Z"/><path class="cls-2" d="M32.8,49,393,50.8s-2.1-11.6-8-20.9-9.1-12.5-9.1-12.5l-323.5.3s-6.7,1.9-12.7,11.5A50,50,0,0,0,32.8,49Zm-.4,23.4,361.7-.6a24.49,24.49,0,0,0,.7-4.5c0-1.7-.1-1.8-.1-3l-.3-1.9-362.3.2s-.1,1.4,0,4.6C32.2,70.7,32.4,72.4,32.4,72.4Z"/><path class="cls-2" d="M16.4,140.5a20.2,20.2,0,1,1,20.2,20.2A20.21,20.21,0,0,1,16.4,140.5Zm65.7,0a20.2,20.2,0,1,1,20.2,20.2A20.21,20.21,0,0,1,82.1,140.5Zm-47.4-9.7,66.5.7a10.3,10.3,0,0,1,1.5,5.5,28.19,28.19,0,0,1-1.7,7.3l-65.7.4s-3.3-3.6-3.5-7C31.8,134.5,34.7,130.8,34.7,130.8Z"/><path class="cls-2" d="M299.4,140.5a20.2,20.2,0,1,1,20.2,20.2A20.21,20.21,0,0,1,299.4,140.5Zm66,0a20.2,20.2,0,1,1,20.2,20.2A20.21,20.21,0,0,1,365.4,140.5Zm-47.9-9.7,66.5.7a10.3,10.3,0,0,1,1.5,5.5,28.19,28.19,0,0,1-1.7,7.3l-65.7.4s-3.3-3.6-3.5-7C314.5,134.5,317.5,130.8,317.5,130.8Z"/><path class="cls-3" d="M253.1,2.8,253,99.1l-.1,45.9M268.3,2.8,268.1,145m-15.4-7.6,14.7-.1m-13.8-9.4,14.8-.1m-14.8-10.3,14.8-.1m-14.8-11.9,14.8-.1M253.6,93.5l14.8-.1m-14.8-11,14.8-.1m-14.8-9.9,14.8-.1m-14.8-9.4,14.8-.1m-14.8-12,14.8-.1M253.6,38.4l14.8-.1m-14.8-11,14.8-.1m-14.8-9.7,14.8-.1M253.6,6.3l14.8-.1"/><path class="cls-4" d="M132.3,132l7.3-6.1m7.5,5.1-7.5-5.4m-9.2,1a9.2,9.2,0,1,1,9.2,9.2A9.18,9.18,0,0,1,130.4,126.6Zm9.2-.6-.4-8.4"/><path class="cls-5" d="M43.4,17.4a50.5,50.5,0,0,0-7,7.6,40.82,40.82,0,0,0-4.8,7.4,60.34,60.34,0,0,0-3.5,10.1c-3.2,12.6-2.7,26.2-.1,38.8a59.26,59.26,0,0,0,6,17.3c.3.5.6.9.9,1.4A38.9,38.9,0,0,1,33,95.8a73.55,73.55,0,0,1-4.3-16.1c-1.6-11.1-1.8-22.9,1.1-33.8,1.3-5,3.5-9.6,5.5-14.3C37.5,26.7,39.9,21.6,43.4,17.4Z"/><path class="cls-5" d="M137.3,117c0-.1-.3.1-.4.2-.3.1-.6.3-.9.4a17.39,17.39,0,0,0-1.8,1.1,10.73,10.73,0,0,0-4,6,9,9,0,0,0,.6,5.6,8.4,8.4,0,0,1-.3-5.2,10.87,10.87,0,0,1,4.2-5.7,9.41,9.41,0,0,1,2.2-1.2.1.1,0,0,0,.1-.1,1.42,1.42,0,0,1,.6-.2c.1,0,.3-.2.2-.1-.8,2.6,0,0,.1,0a1.73,1.73,0,0,0-.3-.4A1.73,1.73,0,0,1,137.3,117Zm-1.9,8.7c-.8,2.6-1.6,5.2-2.5,7.8l.1.1v.1h.1c0-.2.5-2.2-.1-.1C135.4,125.7,136.2,123.1,135.4,125.7Zm-4.4,5.1c.1.2.1.4.2.6a10.38,10.38,0,0,0,1.2,1.7A7.89,7.89,0,0,1,131,130.8Z"/><path class="cls-5" d="M36.1,123c-.5.1-1,.4-1.5.5a8,8,0,0,1,1.5-.3c.1,0,.1-.1,0-.2C36.2,123.1,36.2,123,36.1,123Zm-1.5.5a28,28,0,0,0-2.8.6,4.05,4.05,0,0,0-.9.5A19.2,19.2,0,0,1,34.6,123.5Zm-3.7,1c-3.7,1.2-7.3,3-9.6,6.1-4.4,5.9-4,15.4.9,20.9,3.3,3.7,8.6,5.9,13.5,6.3a17,17,0,0,1-12.6-7.1,18.81,18.81,0,0,1,.2-20.5A17.23,17.23,0,0,1,30.9,124.5Zm42.8,7.1q-13.2-.45-26.4.3c-2.5.1-5,.3-7.5.3a28.51,28.51,0,0,0-3.1.2,4.87,4.87,0,0,1,1.2.1c1.3,0,2.5.1,3.7.1,2.5.1,5,.3,7.5.4,8.1.4,16.3.5,24.5.2,7.5-.3,15.1-.9,22.6-.7a.1.1,0,0,0,.1-.1c0-.1,0-.1-.1-.1C88.8,132.6,81.3,131.9,73.7,131.6Zm-36.9.9h-.7l-.1.1A2,2,0,0,1,36.8,132.5Zm-.8.1c-1.3.3-2.2,1.1-2.8,3.1C33.5,134.7,34.7,132.7,36,132.6Zm48.8,14.2h0c1.9,3.9,4.5,7.8,8.1,10.3,5.6,3.9,11.7,3.9,17.6.9a19.31,19.31,0,0,0,3.6-2.2c-6.7,5.6-16.2,2.6-22.7-1.7-2.6-1.8-5.4-4.2-6.6-7.3Zm19.3-25.6A20.09,20.09,0,0,0,91,125.9a19.93,19.93,0,0,1,8.1-2.7,21.18,21.18,0,0,1,7.1.2,18.8,18.8,0,0,1,11.4,7.1c-.3-.4-.4-.9-.7-1.4a17.7,17.7,0,0,0-6.8-6.5A18.09,18.09,0,0,0,104.1,121.2Zm13.5,9.4a17.8,17.8,0,0,1,2.1,4.4A16.25,16.25,0,0,0,117.6,130.6ZM91,125.9a11.6,11.6,0,0,0-2.4,2C89.4,127.2,90.2,126.6,91,125.9ZM88.6,128c-.2.2-.5.4-.7.6v.1H88C88.1,128.4,88.4,128.2,88.6,128Z"/><path class="cls-5" d="M319.2,123c-.5.1-1,.4-1.5.5a8,8,0,0,1,1.5-.3.14.14,0,0,0,0-.2Zm-1.5.5a28,28,0,0,0-2.8.6,4.05,4.05,0,0,0-.9.5A15.77,15.77,0,0,1,317.7,123.5Zm-3.7,1c-3.7,1.2-7.3,3-9.6,6.1-4.4,5.9-4,15.4.9,20.9,3.3,3.7,8.6,5.9,13.5,6.3a17,17,0,0,1-12.6-7.1,18.81,18.81,0,0,1,.2-20.5A16.69,16.69,0,0,1,314,124.5Zm42.8,7.1q-13.2-.45-26.4.3c-2.5.1-5,.3-7.5.3a28.51,28.51,0,0,0-3.1.2,4.87,4.87,0,0,1,1.2.1c1.3,0,2.5.1,3.7.1,2.5.1,5,.3,7.5.4,8.1.4,16.3.5,24.5.2,7.5-.3,15.1-.9,22.6-.7a.1.1,0,0,0,.1-.1c0-.1,0-.1-.1-.1C371.8,132.6,364.3,131.9,356.8,131.6Zm-37,.9h-.7l-.1.1A2.49,2.49,0,0,1,319.8,132.5Zm-.8.1c-1.3.3-2.2,1.1-2.8,3.1C316.5,134.7,317.8,132.7,319,132.6Zm48.9,14.2h0c1.9,3.9,4.5,7.8,8.1,10.3,5.6,3.9,11.7,3.9,17.6.9a19.31,19.31,0,0,0,3.6-2.2c-6.7,5.6-16.2,2.6-22.7-1.7-2.7-1.8-5.4-4.2-6.6-7.3Zm19.3-25.6c-4.7-.2-9.4,1.8-13.2,4.8a19,19,0,0,1,8.2-2.7,21.18,21.18,0,0,1,7.1.2,18.8,18.8,0,0,1,11.4,7.1c-.3-.4-.4-.9-.7-1.4a17.7,17.7,0,0,0-6.8-6.5A16.56,16.56,0,0,0,387.2,121.2Zm13.4,9.4a17.8,17.8,0,0,1,2.1,4.4A11.94,11.94,0,0,0,400.6,130.6ZM374,126a10,10,0,0,0-2.2,1.9A13.68,13.68,0,0,1,374,126Zm-2.3,1.9c-.2.3-.6.4-.8.7v.1h.1C371.2,128.4,371.5,128.2,371.7,127.9Z"/></g><path class="cls-6" d="M207.8,99.8s-12.5-4.9-13.5-16.2a36.92,36.92,0,0,1,4.6-21.2c1.1-2.3,10.9-14.8,12-18.2s.9-11,.9-11,4.4,4.2,4.5,8.4-4.2,16.2-5.4,18.7-6.3,12.8-5.9,18.9,3.8,10.4,7.9,10.1,6.9-2.3,7.4-8.1-1.8-11.6-2.6-15.8-.6-9.3,1.6-13.3a22.19,22.19,0,0,1,5.3-6.5s-1.8,1.4-.1,7.9,6.7,16.8,6.9,23.3S230.5,90,227,93.6s-9.2,6.1-9.2,6.1l-.4,56.1s.1,4.9-4.6,4.9c-4.9,0-5-4.8-5-4.8Z"/></g></g></svg>