<svg xmlns="http://www.w3.org/2000/svg" viewBox="0 0 76.99 80.07"><defs><style>.cls-1{fill:#efbc05;}.cls-2{fill:#006436;stroke-width:1.95px;}.cls-2,.cls-3{stroke:#006436;stroke-linecap:round;stroke-miterlimit:18.14;}.cls-3{fill:none;stroke-width:9.19px;}</style></defs><g id="Capa_2" data-name="Capa 2"><g id="Capa_1-2" data-name="Capa 1"><path class="cls-1" d="M35.39,51.29s-6.3-2.5-6.8-8.2a19.47,19.47,0,0,1,2.3-10.7c.6-1.2,5.5-7.4,6-9.2a21.72,21.72,0,0,0,.5-5.5s2.2,2.1,2.3,4.2-2.1,8.2-2.7,9.4-3.2,6.5-3,9.5,1.9,5.3,4,5.1,3.5-1.2,3.7-4.1-.9-5.9-1.3-8a10.39,10.39,0,0,1,.8-6.7,12.43,12.43,0,0,1,2.7-3.3s-.9.7,0,4,3.4,8.5,3.5,11.7-.5,6.7-2.2,8.5a17.45,17.45,0,0,1-4,2.9l-.1,26.5h-5.7Z"/><path class="cls-2" d="M25.49,79a3.65,3.65,0,0,1,2.2-3c2-.7,10.5-.8,10.5-.8s8-.2,10.2,1a4.25,4.25,0,0,1,2.4,2.9Z"/><path class="cls-3" d="M4.59,38.49a33.9,33.9,0,1,1,33.9,33.9A33.93,33.93,0,0,1,4.59,38.49Z"/></g></g></svg>