<svg xmlns="http://www.w3.org/2000/svg" viewBox="0 0 126.32 337.79"><defs><style>.cls-1,.cls-2,.cls-7,.cls-8{fill:none;}.cls-1{stroke:#000;stroke-miterlimit:10;stroke-width:5px;}.cls-2,.cls-3{stroke:#006436;}.cls-2,.cls-3,.cls-5,.cls-7,.cls-8{stroke-linecap:round;}.cls-2,.cls-3,.cls-7,.cls-8{stroke-miterlimit:18.14;}.cls-2{stroke-width:9.19px;}.cls-3{fill:#006436;stroke-width:1.95px;}.cls-4{fill:#efbc05;}.cls-5,.cls-6{fill:#fff;}.cls-5{stroke:#fff;stroke-linejoin:round;stroke-width:2.74px;}.cls-7,.cls-8{stroke:#141515;}.cls-7{stroke-width:5.16px;}.cls-8{stroke-width:8.65px;}</style></defs><g id="Capa_2" data-name="Capa 2"><g id="Capa_1-2" data-name="Capa 1"><g id="Capa-2"><path class="cls-1" d="M28,133.39s-6.2,8.6-8.5,12.3-6.3,10-9.6,16.2-5.1,12.3-5.4,24-.4,12,0,23.2,3.2,23,3.8,39.1,1.1,26.9.1,40.1-5.5,16.5-5.9,28.1,2.3,13.4,3.8,13.4,6.4-.5,6.3-12.8-2.2-19-2.3-25.5a131.45,131.45,0,0,0-1.4-14.9"/><path class="cls-1" d="M26.44,150.19s-7-.8-10.1,2.7-7.4,11-7.4,11"/><path class="cls-2" d="M41.74,38.49a33.9,33.9,0,1,1,33.9,33.9A33.93,33.93,0,0,1,41.74,38.49Z"/><path class="cls-3" d="M62.64,79a3.65,3.65,0,0,1,2.2-3c2-.7,10.5-.8,10.5-.8s8-.2,10.2,1a4.25,4.25,0,0,1,2.4,2.9Z"/><path class="cls-3" d="M26.54,330.39V105.79s-.1-5.6,3.6-8.1,6.1-2.2,6.1-2.2v-6.1s-.2-3.3,2.2-5.1a16.11,16.11,0,0,1,5.6-2.4s18.7-3,31.1-2.8,20.5.8,22.6,1.2c4.7.8,7.5,1,10.5,2.9s4,3.5,4.6,5.5a19.66,19.66,0,0,1,.5,5.7,10.74,10.74,0,0,1,7.2,2.6,12.67,12.67,0,0,1,3.9,7.3l-1.9,226a8.19,8.19,0,0,1-3.5,2.1,13.5,13.5,0,0,1-5.6.9,7,7,0,0,1-5.5,3.4c-3.4.4-63.7-.3-63.7-.3a12,12,0,0,1-4.5-.9,2.59,2.59,0,0,1-1.7-2.3s-5,.3-8-.8A8.73,8.73,0,0,1,26.54,330.39Z"/><path class="cls-4" d="M72.54,51.29s-6.3-2.5-6.8-8.2A19.47,19.47,0,0,1,68,32.39c.6-1.2,5.5-7.4,6-9.2a21.72,21.72,0,0,0,.5-5.5s2.2,2.1,2.3,4.2-2.1,8.2-2.7,9.4-3.2,6.5-3,9.5,1.9,5.3,4,5.1,3.5-1.2,3.7-4.1-.9-5.9-1.3-8a10.39,10.39,0,0,1,.8-6.7,12.43,12.43,0,0,1,2.7-3.3s-.9.7,0,4,3.4,8.5,3.5,11.7-.5,6.7-2.2,8.5a17.45,17.45,0,0,1-4,2.9l-.6,286.6h-4.9Z"/><path class="cls-5" d="M60.24,142.29h31.5v63.3H60.24Z"/><path class="cls-6" d="M40,90.39c.2,80.8.8,161.6,1.1,242.5a.31.31,0,0,0,.1.2.31.31,0,0,1,.1.2c-.2-80.4,0-160.7-.2-241.1,0,0-.3-.4-.6-.9S40,90.39,40,90.39Z"/><path class="cls-6" d="M108.84,91c-.5,79.7-.5,159.4-1,239.2a.31.31,0,0,0,.1.2.31.31,0,0,1,.1.2c.5-79.3,1.4-158.5,1.9-237.8a5.67,5.67,0,0,0-.6-.9A4.43,4.43,0,0,0,108.84,91Z"/><path class="cls-6" d="M32.94,98.29c-1.4.2-2.4,2-2.8,3.2-1.3,3.2-1,6.8-1,10.2-.3,14.4-.2,28.7-.5,43.1-.6,27.7-.6,55.5-.4,83.2.1,11.8.4,23.6.5,35.5.2,18,.1,36.1.2,54.1a.43.43,0,0,0,.4.4.54.54,0,0,0,.5-.5c-.1-18-.2-36-.2-54,0-10.7.3-21.4.4-32.1.2-21.6.2-43.1,0-64.7-.1-9.2-.3-18.5-.3-27.7-.1-10.9.1-21.7.2-32.6,0-2.8,0-5.5.1-8.3a18.76,18.76,0,0,1,.6-5.3,6.73,6.73,0,0,1,1.6-3c.1-.1.6-.6.8-.5a.38.38,0,0,0,.3-.5C33.34,98.39,33.14,98.19,32.94,98.29Z"/><path class="cls-6" d="M117.84,97.09a.52.52,0,0,0-.7.3.63.63,0,0,0,.3.8c3.8,1.6,3.3,4.3,3.3,7.7,0,2.2,0,4.4.1,6.6.1,14.4.2,28.8-.1,43.3-.6,27-.7,54-.5,81.1.1,12,.5,24,.6,35.9.2,18.2,0,36.5-.1,54.8a.65.65,0,0,0,.6.6.58.58,0,0,0,.6-.6c0-18.2-.1-36.5.1-54.8.1-12,.5-24,.7-35.9.3-28,.2-56-.5-84.1-.4-13.9-.2-27.8-.3-41.8,0-2,0-4.1-.1-6.1a17.9,17.9,0,0,0-.2-4A6.22,6.22,0,0,0,117.84,97.09Z"/><path class="cls-7" d="M26.44,120.19h97.3"/><path class="cls-8" d="M37,110l77.1.2"/></g></g></g></svg>