<?xml version="1.0" encoding="UTF-8"?>
<svg version="1.1" xmlns="http://www.w3.org/2000/svg" width="742" height="456">
<path d="M0 0 C1.99973137 1.201389 3.84696791 2.48631799 5.703125 3.8984375 C6.3425 4.36378906 6.981875 4.82914063 7.640625 5.30859375 C14.2438519 10.46736476 15.94606845 16.42390656 16.953125 24.5859375 C18.0016868 33.50285735 18.22056839 42.45657337 14.703125 50.8984375 C15.363125 50.5684375 16.023125 50.2384375 16.703125 49.8984375 C25.14508342 49.57750354 31.63227511 51.82276459 39.0859375 55.62109375 C41.51730718 57.04464037 41.51730718 57.04464037 43.703125 56.8984375 C45.30353443 54.65665416 46.79497494 52.41084584 48.265625 50.0859375 C58.99990411 33.58976184 71.59037204 16.73120064 91.75 12.36328125 C102.00741244 10.74868855 111.91500953 12.12123953 120.703125 17.8984375 C124.03402093 20.95948869 126.62335372 24.47137527 127.703125 28.8984375 C126.97038612 41.84349108 118.82823427 52.24431866 112.0234375 62.74609375 C110.61597692 64.61966495 110.61597692 64.61966495 110.703125 65.8984375 C111.41275391 65.13660156 111.41275391 65.13660156 112.13671875 64.359375 C116.93667735 59.36292686 121.76676209 55.45105158 127.703125 51.8984375 C128.64800781 51.29773438 129.59289062 50.69703125 130.56640625 50.078125 C143.25816037 42.52313313 158.3746585 39.90487288 172.828125 43.1484375 C176.47723662 44.10824195 179.4685602 45.17224662 182.640625 47.2109375 C185.55479161 49.25659853 185.55479161 49.25659853 188.515625 48.2734375 C190.79773505 46.95206768 190.79773505 46.95206768 192.703125 44.8984375 C196.37476516 43.53984465 200.14417928 43.7656557 204.015625 43.7734375 C205.29050781 43.77085938 206.56539063 43.76828125 207.87890625 43.765625 C211.703125 43.8984375 211.703125 43.8984375 215.49609375 44.546875 C218.89423741 45.28916784 218.89423741 45.28916784 221.703125 42.6484375 C222.43015625 41.93880859 222.43015625 41.93880859 223.171875 41.21484375 C224.703125 39.8984375 224.703125 39.8984375 228.203125 38.5859375 C232.38004904 36.57206341 233.94258336 34.34254875 236.44140625 30.54296875 C236.85777344 30.00027344 237.27414062 29.45757812 237.703125 28.8984375 C238.363125 28.8984375 239.023125 28.8984375 239.703125 28.8984375 C240.033125 27.9084375 240.363125 26.9184375 240.703125 25.8984375 C242.84765625 23.99609375 242.84765625 23.99609375 245.515625 21.9609375 C248.0854307 19.99087966 250.50490475 18.10191359 252.765625 15.78125 C257.39401474 11.28350029 264.02367461 9.26376047 270.37109375 8.796875 C276.83970595 9.0785901 283.20721953 11.13005291 287.703125 15.8984375 C290.55963963 20.5695979 291.09327528 24.41099941 290.890625 29.7734375 C290.87708984 30.46179687 290.86355469 31.15015625 290.84960938 31.859375 C290.8146087 33.53940751 290.76081454 35.219031 290.703125 36.8984375 C291.84587891 37.09566406 291.84587891 37.09566406 293.01171875 37.296875 C297.19025787 38.23083004 300.36381532 40.12642777 302.97265625 43.578125 C305.02790008 46.9623781 305.703125 48.88346778 305.703125 52.8984375 C306.62931641 52.22748047 306.62931641 52.22748047 307.57421875 51.54296875 C310.26044807 49.6254017 312.97493747 47.75576291 315.703125 45.8984375 C316.76273438 45.15207031 316.76273438 45.15207031 317.84375 44.390625 C330.15766179 36.54168122 349.1488312 37.47525378 363.03125 40.15625 C372.25177873 42.71750798 381.25955163 50.83044158 386.515625 58.6484375 C392.00111729 68.41339186 395.9214635 79.62423141 395.703125 90.8984375 C396.35539063 90.93582031 397.00765625 90.97320312 397.6796875 91.01171875 C404.60697786 91.53279811 409.77148404 92.46693521 414.515625 97.8984375 C418.2910187 103.07612029 418.16972288 107.70941282 417.703125 113.8984375 C416.72692018 119.69297436 414.84576082 123.93790709 411.265625 128.5859375 C408.16499407 132.69200315 406.77084524 136.56353528 405.640625 141.5234375 C402.47730384 154.79070007 393.08793548 162.22316426 381.8515625 169.2734375 C377.08931559 171.73137139 372.14428204 173.14419989 366.98828125 174.5625 C363.19670144 176.10437907 362.06003274 177.62632133 359.703125 180.8984375 C343.81623 194.45978373 326.24254767 199.46263651 305.703125 197.8984375 C296.50298334 196.743608 288.45666244 193.79982298 280.078125 190.0078125 C275.67387721 188.56011994 272.77949829 188.87598096 268.640625 190.9140625 C268.00125 191.32140625 267.361875 191.72875 266.703125 192.1484375 C258.64581426 196.83831042 249.10642561 200.66057998 239.703125 200.8984375 C238.47464844 200.94871094 237.24617188 200.99898437 235.98046875 201.05078125 C226.84023112 201.31506175 219.53618817 200.59379965 211.453125 196.0859375 C208.79950757 194.57969752 208.79950757 194.57969752 206.35546875 195.66796875 C203.72928583 196.88630103 201.12095379 198.13618072 198.515625 199.3984375 C185.7541894 205.17430755 172.94690412 205.44537347 159.67578125 201.06640625 C156.703125 199.8984375 156.703125 199.8984375 153.69921875 198.03515625 C152.71050781 197.66003906 151.72179687 197.28492188 150.703125 196.8984375 C147.62085466 198.19447866 147.62085466 198.19447866 144.703125 200.5234375 C133.56443527 208.11595831 119.91792625 209.36711795 106.703125 207.8984375 C99.84478165 206.40992891 95.41351307 204.1797817 90.703125 198.8984375 C88.79407057 198.02403783 88.79407057 198.02403783 86.703125 197.8984375 C85.02770394 199.07123224 83.35784736 200.25359067 81.73046875 201.4921875 C70.39900303 209.35216373 53.98807666 210.37696223 40.703125 208.2109375 C35.2443793 207.01899619 30.5660144 204.58237838 25.703125 201.8984375 C25.043125 201.5684375 24.383125 201.2384375 23.703125 200.8984375 C22.0028019 201.70609097 20.34279853 202.59884381 18.703125 203.5234375 C13.33273927 206.3129097 8.03563391 208.17515103 2.203125 209.7734375 C1.03716797 210.09562256 1.03716797 210.09562256 -0.15234375 210.42431641 C-3.75368771 211.37571857 -6.51173026 211.8984375 -10.296875 211.8984375 C-10.35746094 212.81367188 -10.41804687 213.72890625 -10.48046875 214.671875 C-10.56425781 215.86039063 -10.64804688 217.04890625 -10.734375 218.2734375 C-10.85619141 220.04847656 -10.85619141 220.04847656 -10.98046875 221.859375 C-11.296875 224.8984375 -11.296875 224.8984375 -12.296875 226.8984375 C-11.74862061 226.69686035 -11.20036621 226.4952832 -10.63549805 226.28759766 C17.02978663 216.18052377 17.02978663 216.18052377 24.4453125 219.5625 C29.74035568 222.69555323 34.73044709 226.2826336 39.703125 229.8984375 C40.30898438 229.59164062 40.91484375 229.28484375 41.5390625 228.96875 C51.43145491 224.07612271 60.53602565 225.49175317 70.703125 228.8984375 C71.363125 229.2284375 72.023125 229.5584375 72.703125 229.8984375 C73.40695312 229.40214844 74.11078125 228.90585938 74.8359375 228.39453125 C92.24843375 216.41491568 108.98110352 209.76329175 130.390625 213.55078125 C137.11755799 215.54998455 141.87609132 218.8442493 146.703125 223.8984375 C147.23421875 223.50011719 147.7653125 223.10179687 148.3125 222.69140625 C150.44270833 221.09375 152.57291667 219.49609375 154.703125 217.8984375 C155.31381836 217.40456543 155.92451172 216.91069336 156.55371094 216.40185547 C163.4577237 211.57281065 172.0719268 211.40138811 180.203125 211.4609375 C181.17121094 211.44095703 182.13929688 211.42097656 183.13671875 211.40039062 C189.2954293 211.40452399 193.95149395 212.40530515 199.52929688 215.03881836 C203.74979562 216.70777344 206.75606017 215.65167716 210.703125 213.9609375 C219.87844189 210.05863047 229.75809007 209.35904434 239.3203125 212.6796875 C248.49189553 217.37072669 252.54080732 225.50683071 255.703125 234.8984375 C256.321875 234.26397705 256.321875 234.26397705 256.953125 233.61669922 C258.86425639 231.66344189 260.78360679 229.71845215 262.703125 227.7734375 C263.35152344 227.10828125 263.99992188 226.443125 264.66796875 225.7578125 C277.68086449 212.61607621 290.95892073 206.848392 309.390625 206.5859375 C310.19886719 206.56813232 311.00710938 206.55032715 311.83984375 206.53198242 C319.27616446 206.54191994 324.3548771 208.74228176 330.515625 212.9609375 C331.26457031 213.46753906 332.01351562 213.97414062 332.78515625 214.49609375 C334.703125 215.8984375 334.703125 215.8984375 336.703125 217.8984375 C338.064375 216.5990625 338.064375 216.5990625 339.453125 215.2734375 C347.96418503 208.07834458 357.45847718 204.06014756 368.703125 204.8984375 C372.12381874 205.70887879 374.76550235 206.98621144 377.703125 208.8984375 C378.44820312 209.37410156 379.19328125 209.84976563 379.9609375 210.33984375 C384.4489712 213.67771828 386.18427534 216.29282534 387.203125 221.8359375 C387.40256885 223.51987817 387.58078925 225.20714569 387.703125 226.8984375 C390.48971927 224.19380189 393.06908002 221.47722584 395.515625 218.4609375 C402.42798401 210.37013561 411.95918353 204.77549395 422.703125 203.8984375 C430.41343322 203.30626649 435.97199971 204.03162084 442.703125 207.8984375 C443.51265625 208.35734375 444.3221875 208.81625 445.15625 209.2890625 C449.84436109 212.16242091 453.17452768 214.39548714 454.703125 219.8984375 C455.61691342 229.11742723 453.6343121 236.38215114 450.265625 244.8984375 C449.43240351 247.08548441 448.6003223 249.27296618 447.76953125 251.4609375 C447.39771729 252.41097656 447.02590332 253.36101562 446.64282227 254.33984375 C445.8420189 256.52025926 445.20881975 258.63462952 444.703125 260.8984375 C445.693125 260.84042969 446.683125 260.78242188 447.703125 260.72265625 C460.85741245 260.17816866 460.85741245 260.17816866 466.25 264.3515625 C469.70687393 268.03146055 470.57899298 271.67780596 471.078125 276.5859375 C470.3653978 289.56248784 464.35643565 299.9845548 458.22460938 311.12744141 C456.72527814 313.8580912 455.25061104 316.60078394 453.78125 319.34765625 C442.26056363 340.7688708 442.26056363 340.7688708 433.703125 348.8984375 C432.59300805 350.20590858 431.48938779 351.51891032 430.390625 352.8359375 C426.29810432 357.56427649 421.71027997 361.89605251 415.703125 363.8984375 C414.35586925 366.3001972 413.16772355 368.65536242 412.015625 371.1484375 C408.8780647 377.68514324 405.45449945 383.81285446 401.5703125 389.94140625 C399.877589 392.622142 398.28406492 395.33852029 396.703125 398.0859375 C387.97967299 412.60930626 375.57986897 424.44658893 359.00390625 429.2109375 C343.78822756 432.20293451 324.29075952 432.14910305 310.703125 423.8984375 C302.33622193 418.04160535 297.39363047 409.37096166 295.1640625 399.515625 C293.42659859 388.10287189 297.10497399 375.25777127 303.703125 365.8984375 C305.96435431 362.83635614 308.2889922 359.84131408 310.703125 356.8984375 C309.61773438 357.24777344 308.53234375 357.59710938 307.4140625 357.95703125 C305.96881839 358.41688165 304.52350203 358.87650505 303.078125 359.3359375 C302.36527344 359.56603516 301.65242187 359.79613281 300.91796875 360.03320312 C300.21542969 360.25556641 299.51289062 360.47792969 298.7890625 360.70703125 C298.1501709 360.91126709 297.5112793 361.11550293 296.85302734 361.32592773 C281.31066229 365.46479283 259.92800812 365.29395954 245.42578125 357.70703125 C244.81605469 357.33707031 244.20632813 356.96710938 243.578125 356.5859375 C240.90763618 354.64446377 240.90763618 354.64446377 238.28515625 355.11328125 C235.51607291 355.95531718 233.81685146 357.03780328 231.515625 358.7734375 C223.48388779 364.21513567 216.18927902 365.17674953 206.640625 365.3359375 C205.80168701 365.35833496 204.96274902 365.38073242 204.09838867 365.40380859 C196.59533342 365.37588615 190.38904853 363.07197523 184.328125 358.6484375 C180.91814882 355.07608151 178.703125 351.01108564 178.703125 345.8984375 C176.063125 347.5484375 173.423125 349.1984375 170.703125 350.8984375 C171.363125 352.5484375 172.023125 354.1984375 172.703125 355.8984375 C167.84813809 361.72442179 161.09776403 364.49184855 153.703125 365.8984375 C143.26409327 366.62287542 134.59478815 365.63595514 124.703125 361.8984375 C120.86113152 360.61777301 119.98741311 361.45468613 116.390625 363.1484375 C100.14979851 370.10602307 79.54192128 372.23648522 62.703125 365.8984375 C58.40931871 364.10401099 54.16049418 362.06769258 50.703125 358.8984375 C50.703125 358.2384375 50.703125 357.5784375 50.703125 356.8984375 C50.043125 356.8984375 49.383125 356.8984375 48.703125 356.8984375 C48.5175 358.0946875 48.331875 359.2909375 48.140625 360.5234375 C44.57974846 376.41042512 33.08477737 390.96131571 24.140625 404.2109375 C23.20283203 405.60795898 23.20283203 405.60795898 22.24609375 407.03320312 C12.56970479 421.23269406 0.29187165 432.61052886 -16.609375 437.578125 C-27.27380314 438.84917603 -39.33063674 439.30456389 -49.296875 434.8984375 C-49.296875 434.2384375 -49.296875 433.5784375 -49.296875 432.8984375 C-50.03035156 432.79660156 -50.76382813 432.69476563 -51.51953125 432.58984375 C-58.36461332 430.88579378 -64.04295767 424.85173095 -67.94921875 419.171875 C-75.87919897 405.79434314 -76.43559221 392.7839698 -73.0859375 377.9453125 C-72.55895957 375.91044722 -71.96158414 373.89256493 -71.296875 371.8984375 C-71.915625 372.0634375 -72.534375 372.2284375 -73.171875 372.3984375 C-82.51877526 373.89394154 -91.77461749 373.29199513 -99.984375 368.3359375 C-108.91814499 361.84147514 -113.26615811 351.52876368 -115.296875 340.8984375 C-116.3859546 332.26947547 -116.8755644 323.5821718 -117.296875 314.8984375 C-119.04860222 317.7515474 -120.79793623 320.6061176 -122.546875 323.4609375 C-123.03800781 324.26080078 -123.52914062 325.06066406 -124.03515625 325.88476562 C-126.23749011 329.48191093 -128.42069185 333.08177834 -130.49609375 336.75390625 C-131.86865807 339.15068342 -133.24681748 341.41320925 -134.859375 343.6484375 C-135.25253906 344.20015625 -135.64570313 344.751875 -136.05078125 345.3203125 C-137.296875 346.8984375 -137.296875 346.8984375 -138.72265625 348.2890625 C-140.72019816 350.33121452 -142.27374715 352.56528531 -143.921875 354.8984375 C-147.52982262 359.91501292 -151.32725816 364.72127 -155.28125 369.46875 C-156.41912868 370.84037896 -157.54454435 372.22332141 -158.625 373.640625 C-167.30503348 384.94911932 -182.79159825 393.57875278 -196.7109375 396.49609375 C-211.81979884 398.19131458 -228.27109198 399.02031642 -241.109375 389.7109375 C-252.81719356 379.59572661 -258.34329371 369.0493748 -259.5546875 353.61328125 C-260.12130803 336.55800333 -253.12004914 324.92606322 -242.87890625 311.95703125 C-238.52937238 306.45231627 -238.52937238 306.45231627 -237.484375 299.7109375 C-237.7525 298.7828125 -238.020625 297.8546875 -238.296875 296.8984375 C-241.60769282 284.98646031 -240.10348176 271.70178219 -234.296875 260.8984375 C-231.29979472 256.0541002 -227.80857741 252.02001288 -223.93017578 247.86865234 C-223.43630371 247.33965332 -222.94243164 246.8106543 -222.43359375 246.265625 C-221.66861572 245.44916504 -221.66861572 245.44916504 -220.88818359 244.61621094 C-219.23855936 242.83548739 -217.61930568 241.03054624 -216.00390625 239.21875 C-201.8336058 223.42108885 -186.91195121 216.4385224 -165.671875 215.2734375 C-162.88050727 215.13620212 -160.08926214 215.01402651 -157.296875 214.8984375 C-157.85375 214.6303125 -158.410625 214.3621875 -158.984375 214.0859375 C-168.99682653 208.94440834 -174.77493812 202.95644663 -178.45703125 192.1953125 C-179.71170132 187.27000301 -179.82749001 182.93210959 -179.296875 177.8984375 C-179.20148438 176.93164062 -179.10609375 175.96484375 -179.0078125 174.96875 C-177.58459923 164.22488512 -173.24064553 155.20011612 -167.796875 145.9609375 C-167.24567993 145.02060669 -167.24567993 145.02060669 -166.68334961 144.0612793 C-164.82444404 141.00827226 -163.13643614 138.74321801 -160.53515625 136.2265625 C-158.14697395 134.14908335 -158.14697395 134.14908335 -157.80859375 131.66015625 C-157.86660156 130.97566406 -157.92460937 130.29117188 -157.984375 129.5859375 C-158.0875 128.3690625 -158.190625 127.1521875 -158.296875 125.8984375 C-159.20308594 126.36894531 -160.10929687 126.83945313 -161.04296875 127.32421875 C-164.76693256 129.23979578 -168.52231735 131.08485547 -172.296875 132.8984375 C-173.06773437 133.27226562 -173.83859375 133.64609375 -174.6328125 134.03125 C-184.21317102 137.93155406 -196.12292521 137.1383417 -205.609375 133.5234375 C-208.89335519 132.08538215 -212.10141868 130.52273121 -215.296875 128.8984375 C-215.296875 128.2384375 -215.296875 127.5784375 -215.296875 126.8984375 C-215.89628906 126.64835938 -216.49570313 126.39828125 -217.11328125 126.140625 C-224.32907168 122.03575674 -227.70593768 111.30559299 -230.296875 103.8984375 C-234.90755688 84.39170646 -227.98577239 66.51141045 -218.296875 49.8984375 C-217.80832031 49.03863281 -217.31976563 48.17882813 -216.81640625 47.29296875 C-203.53873818 25.09795324 -182.87745482 7.45673074 -157.55078125 0.93359375 C-134.51664806 -4.08577624 -107.59031616 -2.51866094 -86.765625 9.33984375 C-84.77476035 10.74493476 -83.04720843 12.20522451 -81.296875 13.8984375 C-80.32814453 14.80916016 -80.32814453 14.80916016 -79.33984375 15.73828125 C-74.81343633 20.3937512 -73.02672967 24.46380041 -72.296875 30.8984375 C-71.90757812 30.39054687 -71.51828125 29.88265625 -71.1171875 29.359375 C-67.09624361 24.41194635 -63.1265227 21.3642924 -57.58203125 18.26171875 C-54.67116219 16.52514901 -52.591878 14.37952182 -50.296875 11.8984375 C-35.79046007 -1.6482655 -19.14374458 -9.18118362 0 0 Z M-147.296875 216.8984375 C-147.296875 217.2284375 -147.296875 217.5584375 -147.296875 217.8984375 C-143.666875 218.5584375 -140.036875 219.2184375 -136.296875 219.8984375 C-136.296875 219.2384375 -136.296875 218.5784375 -136.296875 217.8984375 C-139.04766384 216.98150789 -140.65636413 216.78957667 -143.484375 216.8359375 C-144.7425 216.8565625 -146.000625 216.8771875 -147.296875 216.8984375 Z " fill="#040404" transform="translate(264.296875,14.1015625)"/>
<path d="M0 0 C2.5625 1.375 2.5625 1.375 4 3 C4 3.66 4 4.32 4 5 C4.66 5 5.32 5 6 5 C6.23677492 10.80098558 5.69136242 15.39736199 4 21 C3.74803177 24.25100364 3.74803177 24.25100364 4 27 C6.2022758 29.2022758 11.13675637 28.45232235 14.1171875 28.62109375 C17 29 17 29 20 31 C20.60726761 36.87025357 19.79616379 41.77284307 17 47 C16.55011719 47.89847656 16.10023438 48.79695313 15.63671875 49.72265625 C10.78933517 53.9093594 3.8999444 52.38150366 -2.22460938 52.09765625 C-5.36504976 52.07835422 -7.9763414 52.1388224 -11 53 C-18.49307449 60.80239857 -18.39692329 73.36132233 -18.44995117 83.50732422 C-18.30239246 89.65538713 -17.18601262 93.31565255 -13 98 C-9.97402197 99.51298901 -7.27037077 99.5380866 -4 99 C1.35377126 96.94402025 6.40336355 94.57072548 10 90 C11.17429439 87.10664712 11.98160443 84.13203653 12.8125 81.125 C18.4885215 62.19713983 27.89279014 45.74895885 45.51171875 35.77734375 C57.87328323 29.47889824 72.50659614 27.290094 86 31.4375 C95.69487326 35.68179935 102.51970342 43.58351702 107 53 C111.50455869 65.22665929 111.59891175 79.87310769 107 92 C108.98 92 110.96 92 113 92 C113 91.34 113 90.68 113 90 C114.64453125 88.34375 114.64453125 88.34375 116.8125 86.5 C117.52019531 85.8915625 118.22789062 85.283125 118.95703125 84.65625 C123.51211614 80.96340871 123.51211614 80.96340871 126.5 81.1875 C129.25466373 82.08276571 130.22062844 82.75556542 132 85 C133.65750729 92.52784559 130.98895377 98.7361787 127 105 C120.44559129 114.64684487 109.92220541 120.51033271 99 124 C96.70703125 124.24609375 96.70703125 124.24609375 94.6875 124.3125 C89.90930369 125.20335016 88.69847942 127.10583901 85.77734375 130.80859375 C80.95107511 136.75922387 74.72094974 141.39277698 68 145 C66.70835937 145.70189453 66.70835937 145.70189453 65.390625 146.41796875 C55.56066535 151.16026009 44.95857875 151.5828906 34.4375 148.8125 C25.18923658 145.43124843 20.14844264 139.30437111 15 131 C15 130.34 15 129.68 15 129 C14.01 129 13.02 129 12 129 C11.73832031 129.58265625 11.47664063 130.1653125 11.20703125 130.765625 C5.52591513 141.28212474 -7.31008294 147.82444248 -18 152 C-25.03602881 153.90882801 -35.20504294 154.52230619 -42.125 151.8125 C-46.57567817 149.00663767 -50.17935527 145.45364957 -53 141 C-53 140.01 -53 139.02 -53 138 C-56.39265269 139.13088423 -56.9348413 139.94297711 -59.0625 142.6875 C-63.07159331 147.40706554 -67.52829955 150.19422389 -73 153 C-73.60070312 153.34160156 -74.20140625 153.68320313 -74.8203125 154.03515625 C-81.58606187 157.2966722 -90.70426943 157.20598314 -98 156 C-103.67660641 153.52947693 -107.60204078 149.01664884 -110.1875 143.4375 C-111 141 -111 141 -111 138 C-116.31435754 142.38293418 -116.31435754 142.38293418 -120.875 147.5 C-127.63477133 155.45267216 -136.45657621 159.21698379 -146.671875 160.27734375 C-153.59911029 160.53973903 -158.02676758 158.98215495 -163.8125 155.125 C-166.15473705 152.84968401 -167.05389558 151.09634174 -168 148 C-168.66 148 -169.32 148 -170 148 C-172.03993514 143.07015675 -173.40652968 139.42039575 -173 134 C-175.88822576 136.73125697 -178.08977507 139.48302711 -180.25 142.8125 C-186.81475687 152.31670024 -195.54096028 158.78212134 -207 161 C-220.13934867 162.31864431 -220.13934867 162.31864431 -225.6875 158.25 C-229.69841625 154.72821988 -232.28768031 151.68754785 -232.6875 146.25 C-232.75324219 145.45078125 -232.81898438 144.6515625 -232.88671875 143.828125 C-232.92410156 143.22484375 -232.96148437 142.6215625 -233 142 C-236.23266683 143.71735425 -238.71066059 145.66065817 -241.3125 148.1875 C-253.65074332 159.27540509 -270.09896049 163.43294911 -286.2734375 163.2734375 C-295.16957285 162.62068124 -302.17366986 158.69846272 -308 152 C-318.34728806 137.75925385 -321.96783993 119.77511206 -319.38671875 102.4921875 C-316.90985056 88.21980215 -311.59758392 75.04188053 -302 64 C-301.34515625 63.20335937 -300.6903125 62.40671875 -300.015625 61.5859375 C-290.62584925 50.56460498 -279.66819453 42.28767226 -265 41 C-247.58424263 39.83626034 -247.58424263 39.83626034 -240 45 C-240 45.66 -240 46.32 -240 47 C-239.11054688 47.33451172 -239.11054688 47.33451172 -238.203125 47.67578125 C-233.50417553 50.50014981 -231.69616106 55.99934393 -230 61 C-228.49679287 72.62881032 -230.32999037 83.28349888 -237.125 92.8984375 C-240.52694752 96.71145368 -244.73729329 99.24894222 -249 102 C-249.9075 102.763125 -250.815 103.52625 -251.75 104.3125 C-257.4785909 108.60894317 -264.09399519 108.70594716 -271 108 C-274.6875 106.5 -274.6875 106.5 -277 105 C-277 104.34 -277 103.68 -277 103 C-278.98 103.495 -278.98 103.495 -281 104 C-281.61400149 109.24027152 -281.61400149 109.24027152 -279.8046875 114.01953125 C-276.31063567 118.18956799 -273.5108291 120.69261757 -267.96875 121.37109375 C-256.55352455 121.58962847 -247.94294525 118.63969511 -238.81640625 111.8203125 C-233.93936301 106.932781 -231.20333682 101.79272751 -229.17578125 95.30859375 C-228.94344284 94.60025894 -228.71110443 93.89192413 -228.47172546 93.16212463 C-227.74048576 90.92412442 -227.02620081 88.68114705 -226.3125 86.4375 C-225.82339251 84.92997247 -225.33316683 83.42280724 -224.84179688 81.91601562 C-223.94008704 79.14597233 -223.04490028 76.3740151 -222.1574707 73.59936523 C-221.41417772 71.2879608 -220.65529738 68.98147869 -219.87695312 66.68164062 C-219.03755285 64.11483311 -218.57102046 61.73028521 -218.1875 59.0625 C-214.68731693 39.41374503 -205.31614009 18.70708891 -189.2109375 6.41015625 C-182.32056621 2.01541414 -174.96367389 1.99716699 -167 3 C-163.78123668 4.54703832 -161.43167929 6.40285141 -159 9 C-158.67 9.33 -158.34 9.66 -158 10 C-157.43596167 16.43003698 -158.41583226 20.63078872 -162 26 C-163.06459023 27.12089228 -164.16306558 28.21034156 -165.2890625 29.26953125 C-181.71122661 45.3797063 -195.94845232 72.05514742 -196.4375 95.375 C-196.35228038 99.33520587 -196.24196207 100.6370569 -194 104 C-187.63939112 105.46478752 -182.33860381 103.30945123 -177 100 C-173.11668505 97.41112337 -173.06367715 94.92659369 -172.1875 90.625 C-170.48860512 83.09165336 -167.72525513 76.77874294 -164 70 C-163.37052208 68.62704423 -162.74503505 67.252246 -162.125 65.875 C-159.53106741 60.68713481 -155.72047021 56.40840621 -152 52 C-151.41992188 51.27296875 -150.83984375 50.5459375 -150.2421875 49.796875 C-146.10207988 44.7517206 -141.6826498 41.20122606 -136 38 C-135.3090625 37.58492187 -134.618125 37.16984375 -133.90625 36.7421875 C-124.93918973 32.22708321 -112.1069907 32.16720325 -102.58984375 35.0234375 C-99.42298668 36.56255802 -96.87599541 38.06619778 -94.4609375 40.640625 C-92.92204106 42.33579689 -92.92204106 42.33579689 -89.6875 42.4375 C-85.36442719 41.92459306 -83.43261213 40.6117701 -80 38 C-75.8461436 35.01774413 -73.11730617 34.46133619 -68 35 C-63.35732854 36.76421516 -59.92409017 38.95787536 -57 43 C-55.025539 50.06356472 -58.12844577 56.05212003 -61.0715332 62.33227539 C-66.701721 74.55624936 -71.52110314 88.39457745 -70 102 C-65.76705996 102.09380477 -62.85786966 101.81546807 -59 100 C-59 99.34 -59 98.68 -59 98 C-58.34 98 -57.68 98 -57 98 C-56.566875 97.1028125 -56.566875 97.1028125 -56.125 96.1875 C-55 94 -55 94 -53 91 C-52.36509889 88.82690667 -51.79071247 86.63592308 -51.25 84.4375 C-49.50586302 77.51771392 -47.32952254 70.79963988 -44.93066406 64.07983398 C-43.60171204 60.25931072 -42.64256284 57.1105273 -43 53 C-45.64 52.01 -48.28 51.02 -51 50 C-51 49.34 -51 48.68 -51 48 C-51.99 47.67 -52.98 47.34 -54 47 C-53.63890473 39.89845978 -53.63890473 39.89845978 -51 36.1875 C-47.75653433 33.82247295 -44.99416655 32.87054955 -41.19921875 31.72265625 C-32.96498029 29.01691182 -28.76418146 21.94414825 -24.0234375 15.1796875 C-17.48413267 5.91356829 -12.06961363 -1.24340602 0 0 Z " fill="#FAFBFA" transform="translate(539,34)"/>
<path d="M0 0 C3.46573107 1.80646214 3.46573107 1.80646214 4.625 4.125 C5.43202852 15.84243326 3.44333864 26.40934686 0.7578125 37.8046875 C-0.76704199 44.6737939 -1.69597172 51.28922787 -1.8125 58.3125 C-1.83465576 59.03163574 -1.85681152 59.75077148 -1.87963867 60.49169922 C-1.8653622 63.91886898 -1.60717164 65.81030054 0.44921875 68.59765625 C3.29435781 70.59487236 5.22566317 70.43403062 8.625 70.125 C8.625 69.465 8.625 68.805 8.625 68.125 C9.223125 67.58875 9.82125 67.0525 10.4375 66.5 C15.80673654 60.67054319 16.11570933 53.15866313 17.11328125 45.625 C19.42262364 29.82980319 25.70974042 13.0735367 37.6875 2.1875 C44.4132633 -2.53484444 51.66163848 -2.68104757 59.625 -1.875 C62.6105989 -0.9338873 65.10587204 0.26978015 67.625 2.125 C68.18960937 2.52074219 68.75421875 2.91648438 69.3359375 3.32421875 C71.46350914 6.29637186 70.98285156 8.53231204 70.625 12.125 C69.71012496 15.65328877 68.53139438 19.0664947 67.3125 22.5 C66.8494043 23.84191406 66.8494043 23.84191406 66.37695312 25.2109375 C65.75957634 26.99938058 65.13906167 28.78674359 64.51538086 30.57299805 C61.80709207 38.33547205 59.40432164 46.14475713 57.1875 54.0625 C56.72790894 55.70206665 56.72790894 55.70206665 56.2590332 57.37475586 C54.06704774 65.29686147 52.1359149 73.24159473 50.44921875 81.28515625 C49.59603076 85.25996097 48.63050119 89.1864211 47.625 93.125 C52.12587844 89.69667131 54.80635262 86.72781181 57.5625 81.6875 C57.89604492 81.08494385 58.22958984 80.4823877 58.57324219 79.86157227 C61.5656523 74.39695579 64.305747 68.80741224 66.984375 63.18359375 C68.93106057 59.55441565 70.85195082 56.01152459 74.625 54.125 C76.26642541 53.97859499 77.9148141 53.90403411 79.5625 53.875 C80.43777344 53.84921875 81.31304688 53.8234375 82.21484375 53.796875 C84.625 54.125 84.625 54.125 86.42578125 55.42578125 C88.73703324 58.70068228 87.84721723 62.71762419 87.25 66.5 C86.625 68.125 86.625 68.125 84.625 69.125 C83.90319047 70.74047847 83.1898227 72.36017286 82.515625 73.99609375 C77.41181084 86.19600041 69.63205398 100.22668211 59.625 109.125 C58.965 109.125 58.305 109.125 57.625 109.125 C57.625 109.785 57.625 110.445 57.625 111.125 C55.21681936 112.85189953 52.80932303 114.47361262 50.3125 116.0625 C48.93930389 116.94334568 47.56813564 117.82736236 46.19921875 118.71484375 C45.58651123 119.10534912 44.97380371 119.49585449 44.3425293 119.89819336 C40.55826942 122.60123613 39.42635272 124.54257594 38.26953125 129.06640625 C37.25749485 132.29878918 35.66246796 135.19155733 34.10546875 138.19140625 C32.70328832 140.96986932 31.4076717 143.78335548 30.13012695 146.62084961 C22.83974129 162.70418862 14.5902326 174.39038175 -2.375 181.125 C-13.9555191 184.6695614 -29.17021407 185.39797133 -40.34765625 180.3125 C-45.36224574 177.37524527 -48.45273617 173.49871215 -50.64453125 168.17578125 C-53.14018828 157.75274307 -52.8475664 145.47966819 -47.375 136.125 C-46.9625 135.32707031 -46.55 134.52914062 -46.125 133.70703125 C-41.38669021 125.45537244 -34.72197827 122.96282302 -25.82641602 120.51464844 C-23.88536878 120.00273457 -21.94056785 119.51054801 -19.9921875 119.02734375 C-12.94077675 117.26829852 -6.0482851 115.06480463 0.8125 112.67578125 C2.625 112.125 2.625 112.125 4.625 112.125 C4.893125 111.5475 5.16125 110.97 5.4375 110.375 C6.625 108.125 6.625 108.125 8.09375 106.46875 C10.16213145 103.30286002 10.67909338 100.0369902 11.3125 96.375 C11.44205078 95.67761719 11.57160156 94.98023438 11.70507812 94.26171875 C12.02139933 92.55124111 12.32452747 90.83833275 12.625 89.125 C8.85237643 90.60267969 7.36776627 92.57898361 5.1875 95.9375 C-1.1978325 105.3992775 -1.1978325 105.3992775 -6.375 107.125 C-6.375 107.785 -6.375 108.445 -6.375 109.125 C-13.65603429 112.73330018 -20.24237011 114.30023553 -28.375 113.125 C-31.875 111.375 -31.875 111.375 -34.375 109.125 C-35.1175 108.465 -35.86 107.805 -36.625 107.125 C-39.87381644 103.41206693 -40.47149626 101.00610258 -40.375 96.125 C-40.98085938 96.63289063 -41.58671875 97.14078125 -42.2109375 97.6640625 C-57.37874532 110.125 -57.37874532 110.125 -63.375 110.125 C-63.705 111.115 -64.035 112.105 -64.375 113.125 C-71.49102055 116.28583511 -79.26872414 116.64560114 -86.9375 116.625 C-87.90107422 116.65335937 -88.86464844 116.68171875 -89.85742188 116.7109375 C-98.27377376 116.73363838 -104.48044178 114.25210116 -111.03125 108.9921875 C-111.6396875 108.33476562 -112.248125 107.67734375 -112.875 107 C-113.5040625 106.33742188 -114.133125 105.67484375 -114.78125 104.9921875 C-116.375 103.125 -116.375 103.125 -118.375 100.125 C-122.05349582 100.67557747 -123.32315663 101.90964748 -125.5625 104.8125 C-131.80038691 112.24998055 -140.02760537 117.53471416 -149.77734375 118.44140625 C-154.97604726 118.61051413 -159.16072876 118.62745707 -164 116.625 C-173.81064509 106.29800517 -172.96399549 91.33102401 -172.765625 78.0234375 C-172.28676468 65.62511922 -169.11680388 53.66250724 -164.91235352 42.03735352 C-164.189906 39.46628063 -164.44386861 37.60801703 -165.375 35.125 C-166.41478185 33.87621502 -166.41478185 33.87621502 -168.6875 33.875 C-171.89340257 34.17322349 -173.11299011 34.86299011 -175.375 37.125 C-176.17123822 39.21915804 -176.17123822 39.21915804 -176.375 41.125 C-177.035 41.125 -177.695 41.125 -178.375 41.125 C-178.74625 42.3625 -178.74625 42.3625 -179.125 43.625 C-180.29307693 46.8956154 -181.66939306 49.83617057 -183.27734375 52.90234375 C-188.86975398 64.22647692 -190.26176694 76.01377248 -191.375 88.4375 C-193.21357397 108.45185301 -193.21357397 108.45185301 -200.375 115.125 C-206.52643451 119.99488565 -212.71752134 119.93302842 -220.375 119.125 C-225.93253484 117.61171168 -225.93253484 117.61171168 -228.25 115.0625 C-229.79252537 111.03479486 -229.6256888 107.38670968 -229.375 103.125 C-234.00589892 105.7593933 -237.90668419 108.96213339 -241.97265625 112.3828125 C-244.22650434 114.01731047 -245.66044345 114.71123387 -248.375 115.125 C-248.375 115.785 -248.375 116.445 -248.375 117.125 C-248.99246094 117.30675781 -249.60992187 117.48851562 -250.24609375 117.67578125 C-251.09300781 117.92714844 -251.93992187 118.17851562 -252.8125 118.4375 C-253.63621094 118.68113281 -254.45992188 118.92476563 -255.30859375 119.17578125 C-257.01844771 119.70507362 -258.72335661 120.25571251 -260.39916992 120.88452148 C-265.97694664 122.92871051 -270.8849133 123.63796836 -276.8125 123.5625 C-277.64217285 123.55565186 -278.4718457 123.54880371 -279.32666016 123.54174805 C-287.11076391 123.33794772 -293.08016965 121.8956528 -299.125 116.8125 C-300.23875 115.4821875 -300.23875 115.4821875 -301.375 114.125 C-301.91253906 113.52945313 -302.45007813 112.93390625 -303.00390625 112.3203125 C-307.375 107.43198956 -307.375 107.43198956 -307.375 105.125 C-308.365 104.795 -309.355 104.465 -310.375 104.125 C-318.20704208 87.46176643 -312.85044121 67.47752115 -307.375 51.125 C-306.99601562 49.90167969 -306.61703125 48.67835938 -306.2265625 47.41796875 C-305.3468728 44.6205555 -304.40156824 41.87140336 -303.375 39.125 C-303.12878906 38.45210938 -302.88257813 37.77921875 -302.62890625 37.0859375 C-297.78542526 25.8231061 -288.0688925 16.67308529 -277.375 11.125 C-276.73820312 10.79113281 -276.10140625 10.45726562 -275.4453125 10.11328125 C-265.75564017 5.53636229 -254.65455375 4.40825719 -244.5 7.875 C-236.91768686 10.72685509 -232.96021051 15.16041043 -229.55859375 22.37890625 C-226.547236 31.90990323 -226.69046106 42.76275472 -230.9375 51.875 C-236.43434286 61.08765738 -244.82959735 68.28454225 -254.6875 72.5625 C-268.33603896 74.64448052 -268.33603896 74.64448052 -273.375 72.125 C-273.375 71.465 -273.375 70.805 -273.375 70.125 C-274.365 70.125 -275.355 70.125 -276.375 70.125 C-275.4144456 76.57648479 -274.02170631 80.47829369 -269.375 85.125 C-264.37557393 87.62471303 -257.6056421 86.41154219 -252.375 85.0625 C-243.95163858 82.24146858 -236.26379384 76.5892381 -231.375 69.125 C-230.24615945 66.11318882 -229.65742748 63.10335555 -229.125 59.9375 C-228.83278706 58.35980647 -228.53606047 56.78294088 -228.234375 55.20703125 C-228.11545898 54.51843018 -227.99654297 53.8298291 -227.87402344 53.12036133 C-227.32359971 50.91947429 -226.39157295 49.14681708 -225.375 47.125 C-224.93416776 44.71947101 -224.56439025 42.30029618 -224.25 39.875 C-224.08242188 38.61171875 -223.91484375 37.3484375 -223.7421875 36.046875 C-223.56042969 34.60054688 -223.56042969 34.60054688 -223.375 33.125 C-222.715 33.125 -222.055 33.125 -221.375 33.125 C-221.26542969 32.48433594 -221.15585937 31.84367187 -221.04296875 31.18359375 C-219.1387067 20.79530238 -215.56716097 13.53357478 -207.55761719 6.53759766 C-205.0147115 4.89181999 -203.63842426 4.73903619 -200.63671875 4.7265625 C-199.28223633 4.72076172 -199.28223633 4.72076172 -197.90039062 4.71484375 C-196.96388672 4.72644531 -196.02738281 4.73804688 -195.0625 4.75 C-193.67514648 4.73259766 -193.67514648 4.73259766 -192.25976562 4.71484375 C-186.53248138 4.73926714 -182.41745652 5.35594459 -177.375 8.125 C-175.27584359 10.38987929 -173.74979282 12.37541436 -172.375 15.125 C-168.69630064 14.50480357 -166.40953614 12.89019551 -163.4375 10.6875 C-158.30078551 6.88458464 -154.34539556 4.83864946 -147.875 4.875 C-146.9571875 4.86984375 -146.039375 4.8646875 -145.09375 4.859375 C-140.5354971 5.30472155 -137.21386649 6.933086 -133.75 9.875 C-133.18023437 10.34421875 -132.61046875 10.8134375 -132.0234375 11.296875 C-126.84841043 17.03600454 -126.89923139 22.78737541 -127 30.125 C-127.00652588 31.14867676 -127.01305176 32.17235352 -127.01977539 33.22705078 C-127.14223664 40.18482682 -127.90485641 46.47217774 -129.640625 53.21875 C-130.64096138 57.17752802 -131.02481038 61.06280041 -131.375 65.125 C-127.96583009 63.92718355 -125.72596894 62.87796055 -123.375 60.125 C-122.455879 58.23707192 -122.455879 58.23707192 -121.796875 56.1328125 C-121.52705811 55.35180176 -121.25724121 54.57079102 -120.97924805 53.76611328 C-120.69734619 52.9357959 -120.41544434 52.10547852 -120.125 51.25 C-113.62451088 32.99908984 -102.92653651 13.04300049 -85.0625 3.625 C-78.70903895 1.04054127 -72.83721245 0.88341465 -66.0625 0.8125 C-64.69448242 0.76899414 -64.69448242 0.76899414 -63.29882812 0.72460938 C-55.91526893 0.65580201 -50.76059657 2.21126358 -45.1328125 7.0546875 C-44.32457031 8.01761719 -44.32457031 8.01761719 -43.5 9 C-42.94570313 9.63679687 -42.39140625 10.27359375 -41.8203125 10.9296875 C-37.37018683 17.68906757 -37.77589443 25.33662753 -38.375 33.125 C-39.12021884 36.3341794 -40.11028574 39.06860721 -41.375 42.125 C-42.035 42.125 -42.695 42.125 -43.375 42.125 C-43.74625 43.0221875 -43.74625 43.0221875 -44.125 43.9375 C-46.42787301 47.96752777 -49.99945826 49.86095461 -54.375 51.125 C-58.88850023 51.6758279 -62.06865327 51.83822466 -66.13671875 49.6171875 C-68.74648357 46.71137606 -68.90187728 44.93260053 -68.81445312 41.0859375 C-68.77255859 40.35632813 -68.73066406 39.62671875 -68.6875 38.875 C-68.65366211 37.75738281 -68.65366211 37.75738281 -68.61914062 36.6171875 C-68.56043561 34.785591 -68.47075757 32.95503347 -68.375 31.125 C-74.75482707 30.49079928 -74.75482707 30.49079928 -80.3125 33.3125 C-82.21776374 35.91058692 -83.362815 38.08844501 -84.375 41.125 C-84.705 41.455 -85.035 41.785 -85.375 42.125 C-86.54468328 56.33151416 -86.54468328 56.33151416 -81.375 69.125 C-77.04144064 73.66860432 -73.59838722 75.3091886 -67.375 75.5 C-60.64410887 75.44056608 -55.88398385 73.95811174 -50.375 70.125 C-49.809021 69.7638208 -49.24304199 69.4026416 -48.65991211 69.03051758 C-42.54672047 64.61583952 -41.3750678 59.15762201 -39.6875 52.0625 C-39.10654794 49.80831534 -38.52452788 47.55440565 -37.94140625 45.30078125 C-37.67215332 44.22779785 -37.40290039 43.15481445 -37.12548828 42.04931641 C-35.98019952 37.58663949 -34.59377697 33.2213294 -33.1953125 28.83203125 C-32.35327078 26.05329358 -31.67924973 23.25989975 -31 20.4375 C-28.51958899 11.38663855 -24.48302917 5.09587098 -16.42578125 0.18359375 C-10.77729149 -2.73210287 -5.68288364 -2.74451652 0 0 Z " fill="#FAFBFA" transform="translate(637.375,231.875)"/>
<path d="M0 0 C5.67982121 4.25371892 10.56763458 9.7502833 15.43676758 14.89013672 C17.04087961 16.5195143 17.04087961 16.5195143 19.8046875 17.98046875 C23.4678382 21.98578188 22.53675696 26.8579981 22.375 32.0625 C22.34345825 33.7798938 22.34345825 33.7798938 22.3112793 35.53198242 C22.22565408 39.12799481 22.09046669 42.71875718 21.9375 46.3125 C21.89206055 47.46379395 21.84662109 48.61508789 21.79980469 49.80126953 C21.65344525 53.07924874 21.46319682 56.35074297 21.25 59.625 C21.19706787 60.62563477 21.14413574 61.62626953 21.08959961 62.65722656 C20.72382295 67.23278869 20.50387817 69.61334794 17.5546875 73.25390625 C16.69101563 73.93324219 15.82734375 74.61257813 14.9375 75.3125 C-4.86734037 96.5551625 -10.46548035 126.94098547 -10.6472168 154.92041016 C-10.66179932 155.97147949 -10.67638184 157.02254883 -10.69140625 158.10546875 C-10.69213135 159.0389917 -10.69285645 159.97251465 -10.69360352 160.93432617 C-11.12878145 163.73979823 -11.79588484 164.65045374 -14.0625 166.3125 C-14.7225 166.3125 -15.3825 166.3125 -16.0625 166.3125 C-16.0625 166.9725 -16.0625 167.6325 -16.0625 168.3125 C-23.22760466 171.55707569 -29.91700637 172.79496691 -37.625 170.57421875 C-41.97412551 168.60709783 -44.60442781 166.28243671 -46.625 161.9375 C-50.49888961 148.93608966 -48.66476622 133.3883501 -46.0625 120.3125 C-45.56140859 117.25429265 -45.56535784 115.46106702 -46.0625 112.3125 C-50.48972461 107.05096558 -56.96000608 105.87439273 -63.4296875 104.98828125 C-65.7897517 104.81417815 -67.74914032 104.81318078 -70.0625 105.3125 C-74.55726224 109.80726224 -76.07740218 116.37832459 -78.0625 122.3125 C-78.7225 122.3125 -79.3825 122.3125 -80.0625 122.3125 C-80.25714844 123.22902344 -80.45179688 124.14554687 -80.65234375 125.08984375 C-82.30018611 130.83206258 -85.58234033 135.78227624 -88.625 140.875 C-89.25833252 141.94331055 -89.89166504 143.01162109 -90.54418945 144.11230469 C-92.37353724 147.18521751 -94.21631713 150.24968157 -96.0625 153.3125 C-96.51141602 154.06708496 -96.96033203 154.82166992 -97.42285156 155.59912109 C-106.9164258 171.50695366 -119.67345691 185.9953284 -137.0625 193.3125 C-137.71992188 193.63089844 -138.37734375 193.94929687 -139.0546875 194.27734375 C-148.98238762 198.46861014 -162.84190532 197.54510616 -172.875 194.2109375 C-180.48072637 191.08715703 -185.56003667 185.37910709 -189.171875 178.06640625 C-192.37388864 169.10983036 -192.68779389 157.55018424 -189.3125 148.625 C-187.1729434 144.15820639 -185.06941685 140.47439923 -180.6875 137.9375 C-176.74763715 136.99943742 -173.71240885 137.74253149 -169.9140625 139.0546875 C-159.68912277 142.52918158 -149.04069505 142.74022522 -139.0625 138.3125 C-126.12727155 131.68848543 -118.37554954 120.77781884 -110.32080078 109.12353516 C-109.04990433 107.29437143 -107.75990812 105.4800833 -106.46484375 103.66796875 C-105.64288582 102.50805573 -104.82125816 101.34790859 -104 100.1875 C-102.89978516 98.63675781 -102.89978516 98.63675781 -101.77734375 97.0546875 C-100.2925089 94.68030467 -99.48720708 93.04369325 -99.0625 90.3125 C-101.5014764 90.59449727 -103.93820933 90.88765615 -106.375 91.1875 C-107.06529297 91.26613281 -107.75558594 91.34476562 -108.46679688 91.42578125 C-112.01889471 91.87193847 -114.0322029 92.29230193 -117.0625 94.3125 C-117.413125 95.405625 -117.76375 96.49875 -118.125 97.625 C-121.22273723 106.4503243 -128.74778161 116.02729413 -137.078125 120.41796875 C-143.53248447 122.35258697 -150.44192683 122.34549723 -157.0625 121.3125 C-159.90625 119.41796875 -159.90625 119.41796875 -162.0625 117.3125 C-163.3928125 116.1678125 -163.3928125 116.1678125 -164.75 115 C-170.47660669 108.34475439 -169.6384146 99.65869092 -169.0625 91.3125 C-167.36501865 80.22894532 -161.96959176 72.22104741 -153.5 65.0390625 C-140.66680366 55.94888176 -121.53373781 56.58110184 -106.62109375 58.87890625 C-100.92556213 60.07302978 -95.42561137 61.67868867 -90.02734375 63.859375 C-87.29091374 64.49044037 -85.73922376 64.20242374 -83.0625 63.3125 C-80.87511671 60.8973717 -80.87511671 60.8973717 -78.98828125 57.765625 C-78.62248962 57.2022493 -78.256698 56.6388736 -77.87982178 56.0584259 C-77.10073473 54.85572396 -76.32831262 53.6486827 -75.56204224 52.43777466 C-73.58714 49.31784851 -71.56463693 46.22902663 -69.546875 43.13671875 C-69.15577042 42.53456039 -68.76466583 41.93240204 -68.36170959 41.31199646 C-64.26075589 35.0236865 -59.77906612 29.14588516 -55.0625 23.3125 C-54.52496094 22.54808594 -53.98742187 21.78367188 -53.43359375 20.99609375 C-52.98113281 20.44050781 -52.52867187 19.88492188 -52.0625 19.3125 C-51.4025 19.3125 -50.7425 19.3125 -50.0625 19.3125 C-49.69125 18.44238281 -49.69125 18.44238281 -49.3125 17.5546875 C-44.4368728 8.80903121 -33.10495341 2.36693913 -23.8125 -0.5625 C-16.39786807 -2.3083566 -6.96421932 -3.83472836 0 0 Z " fill="#FAFBFA" transform="translate(222.0625,183.6875)"/>
<path d="M0 0 C5.81211391 4.74458278 10.71603006 10.95056172 12.0625 18.5 C12.38484043 23.83153798 12.23729478 29.16552233 12.0625 34.5 C11.0725 34.5 10.0825 34.5 9.0625 34.5 C8.79695312 35.10328125 8.53140625 35.7065625 8.2578125 36.328125 C4.80155075 42.60813001 -2.750867 45.49738095 -8.9375 48.5 C-18.902635 53.35995654 -25.48660822 58.34979889 -31.9375 67.5 C-32.45183594 68.2115625 -32.96617187 68.923125 -33.49609375 69.65625 C-41.72211239 81.45043776 -46.96645733 94.67816888 -50.91015625 108.421875 C-51.9375 111.5 -51.9375 111.5 -53.4375 114.45703125 C-55.57382358 118.79087518 -56.58382882 123.29928539 -57.77734375 127.96484375 C-58.8274786 131.1647496 -60.13087273 133.82963545 -61.86499023 136.70776367 C-62.96753473 138.55019006 -63.97701402 140.4220927 -64.97265625 142.32421875 C-65.30716797 142.96037109 -65.64167969 143.59652344 -65.98632812 144.25195312 C-66.66776705 145.55312071 -67.34742691 146.85522143 -68.02539062 148.15820312 C-72.85517815 157.32265489 -72.85517815 157.32265489 -78.5 159.6875 C-83.69281688 162.13207169 -87.47949286 165.37393369 -91.61328125 169.31640625 C-99.49974418 176.72570503 -106.53572992 178.74895841 -117.1875 178.8125 C-117.86079346 178.81797852 -118.53408691 178.82345703 -119.2277832 178.82910156 C-126.84743208 178.71985928 -133.00695884 176.15883749 -138.9375 171.5 C-145.70130608 164.05470213 -146.48311501 156.44857056 -146.2421875 146.73046875 C-145.70569516 136.6634782 -140.28102824 129.06554992 -133.9375 121.5 C-130.98085481 120.0216774 -128.19520263 120.43967217 -124.9375 120.5 C-124.67195313 121.06589844 -124.40640625 121.63179688 -124.1328125 122.21484375 C-123.77960938 122.94832031 -123.42640625 123.68179688 -123.0625 124.4375 C-122.71445313 125.16839844 -122.36640625 125.89929688 -122.0078125 126.65234375 C-121.0690023 128.66332459 -121.0690023 128.66332459 -118.9375 129.5 C-107.90021419 130.40258178 -99.66869942 129.87304591 -90.73046875 122.73828125 C-85.55378635 118.00339363 -82.7234055 112.85893986 -79.9375 106.5 C-78.83509853 104.12418013 -77.73089559 101.74919544 -76.625 99.375 C-75.72757603 97.41739508 -74.83117142 95.45932085 -73.9375 93.5 C-74.44539063 93.94730469 -74.95328125 94.39460938 -75.4765625 94.85546875 C-77.62530709 96.74266203 -79.78046367 98.62229212 -81.9375 100.5 C-82.53046875 101.02078125 -83.1234375 101.5415625 -83.734375 102.078125 C-87.70689655 105.5 -87.70689655 105.5 -89.9375 105.5 C-89.9375 106.16 -89.9375 106.82 -89.9375 107.5 C-96.75632886 112.51384475 -105.80090353 112.24628656 -113.9375 111.5 C-119.65351279 108.79241499 -123.2514405 104.61372077 -125.6875 98.8125 C-131.06948641 81.01054495 -125.26336077 59.86585051 -117.9375 43.5 C-116.9475 42.51 -116.9475 42.51 -115.9375 41.5 C-115.9375 40.18 -115.9375 38.86 -115.9375 37.5 C-125.27538602 36.60594708 -131.39122393 39.27972112 -138.9375 44.625 C-141.26871208 46.81051133 -142.80320568 48.50238503 -143.23828125 51.734375 C-143.26472671 57.41133283 -142.87335461 61.57195833 -139.9375 66.5 C-137.86859581 67.54289755 -137.86859581 67.54289755 -135.9375 67.5 C-135.46559165 73.28087729 -136.66581869 76.84000655 -139.9375 81.5 C-140.659375 82.53125 -141.38125 83.5625 -142.125 84.625 C-146.74205334 89.97106176 -154.9018528 94.08787157 -161.8828125 94.80078125 C-172.11692622 94.83849911 -181.48006075 94.13102453 -189.15234375 86.7265625 C-197.86543823 75.85902672 -199.75998519 63.91594697 -198.9375 50.5 C-198.41131867 47.19183027 -197.36283909 44.52344655 -195.9375 41.5 C-195.55827393 40.6342334 -195.55827393 40.6342334 -195.17138672 39.75097656 C-188.08377668 23.63438508 -178.09829232 11.36696753 -161.3125 4.6875 C-151.72266812 1.14868294 -143.56393586 0.14200155 -133.375 0.1875 C-132.12879883 0.19096436 -130.88259766 0.19442871 -129.59863281 0.19799805 C-117.71116597 0.33833404 -106.95644475 1.86044431 -95.9375 6.5 C-95.25171875 6.72429688 -94.5659375 6.94859375 -93.859375 7.1796875 C-89.0640034 8.76038407 -86.33974231 10.62522403 -82.9375 14.5 C-82.195 15.20125 -81.4525 15.9025 -80.6875 16.625 C-77.34432846 20.20696951 -77.59916895 24.28110011 -77.66015625 28.9296875 C-78.108552 33.08524246 -79.39696064 35.15718505 -81.9375 38.5 C-83.91235205 39.8703055 -85.91136717 41.20672372 -87.9375 42.5 C-93.59075217 49.97036894 -93.46018793 58.50490537 -92.9375 67.5 C-92.6075 68.49 -92.2775 69.48 -91.9375 70.5 C-84.73667427 69.92062322 -79.35178925 69.27636406 -74.51953125 63.62109375 C-73.99746094 62.92113281 -73.47539062 62.22117188 -72.9375 61.5 C-72.34324219 60.70722656 -71.74898438 59.91445312 -71.13671875 59.09765625 C-69.34080018 56.60182937 -67.62529667 54.06996248 -65.9375 51.5 C-65.44894531 50.76007813 -64.96039063 50.02015625 -64.45703125 49.2578125 C-62.74764863 46.6010008 -61.17992839 44.15944971 -60.0859375 41.18359375 C-58.61776204 37.75285721 -56.56199617 34.87257858 -54.375 31.875 C-53.93607422 31.26833496 -53.49714844 30.66166992 -53.04492188 30.03662109 C-44.45653705 18.27225895 -44.45653705 18.27225895 -39.9375 13.5 C-39.2775 13.5 -38.6175 13.5 -37.9375 13.5 C-37.6075 12.51 -37.2775 11.52 -36.9375 10.5 C-27.09878247 1.94382958 -13.26983624 -6.59078341 0 0 Z " fill="#F9FBFA" transform="translate(258.9375,24.5)"/>
<path d="M0 0 C3.56034418 2.90640341 5.90164124 5.91372241 8 10 C8 10.66 8 11.32 8 12 C8.83144531 11.37351562 9.66289062 10.74703125 10.51953125 10.1015625 C11.61715542 9.27599902 12.71481345 8.45048054 13.8125 7.625 C14.35970703 7.2125 14.90691406 6.8 15.47070312 6.375 C21.67146389 1.71503433 25.21879849 -0.03324151 33 1 C35.87458887 2.89302194 36.70029655 4.07591435 37.75 7.3125 C38.28508451 13.06465852 38.11787182 17.57295347 36 23 C35.34 23 34.68 23 34 23 C33.896875 23.53625 33.79375 24.0725 33.6875 24.625 C32.81907303 27.62502044 31.44379704 30.2379535 30 33 C29.34 33 28.68 33 28 33 C27.81824219 34.10794922 27.81824219 34.10794922 27.6328125 35.23828125 C27.0951313 38.4933205 26.54846745 41.74676157 26 45 C25.83242188 46.01320313 25.66484375 47.02640625 25.4921875 48.0703125 C25.32976562 49.01648438 25.16734375 49.96265625 25 50.9375 C24.855625 51.79214844 24.71125 52.64679688 24.5625 53.52734375 C24 56 24 56 23.0300293 58.35083008 C22.04718599 60.87864062 21.45788571 63.19964707 20.95703125 65.859375 C20.77414551 66.7975708 20.59125977 67.7357666 20.40283203 68.70239258 C20.20802246 69.70810303 20.01321289 70.71381348 19.8125 71.75 C13.3450561 103.77633175 4.05065812 145.47613137 -24 166 C-32.92271663 171 -32.92271663 171 -38 171 C-38 171.66 -38 172.32 -38 173 C-41.04221065 173.08132642 -44.0822238 173.14065374 -47.125 173.1875 C-47.9809375 173.21263672 -48.836875 173.23777344 -49.71875 173.26367188 C-57.16693619 173.34961248 -61.7595915 171.41821673 -67.375 166.4375 C-68.06335938 165.83808594 -68.75171875 165.23867188 -69.4609375 164.62109375 C-71 163 -71 163 -71 161 C-71.66 161 -72.32 161 -73 161 C-78.06132152 151.80375956 -78.79600288 140.89866527 -76.1640625 130.7890625 C-74.76350533 127.19816028 -73.13936006 124.20904008 -71 121 C-67.1599235 121.23273191 -65.48515866 122.37097272 -62.875 125 C-58.49789495 129.05682907 -53.74557655 128.97922034 -48 129 C-48 128.34 -48 127.68 -48 127 C-46.948125 126.484375 -45.89625 125.96875 -44.8125 125.4375 C-37.08463217 120.95035094 -34.47653659 113.23084219 -32 105 C-31.64293119 103.33825671 -31.30192101 101.6726424 -31 100 C-32.0209375 101.0828125 -32.0209375 101.0828125 -33.0625 102.1875 C-38.78823594 107.88088715 -44.71515024 111.93520134 -53 112.3125 C-59.48350291 112.11528318 -64.58709396 108.57213461 -69 104 C-76.26236805 95.11224481 -77.38078785 86.41207166 -77.3125 75.1875 C-77.30686035 74.21409668 -77.3012207 73.24069336 -77.29541016 72.23779297 C-77.17475653 65.09055856 -76.41001656 58.7644783 -74 52 C-73.5978125 50.78699219 -73.195625 49.57398438 -72.78125 48.32421875 C-65.59750102 27.41244409 -55.23155858 9.0588866 -35.64453125 -2.375 C-24.28047255 -7.85715897 -10.64130754 -6.24449719 0 0 Z " fill="#FAFBFA" transform="translate(296,251)"/>
<path d="M0 0 C2 2 2 2 2.375 5.625 C2.13791772 13.9071361 -3.71830366 20.83711695 -8.375 27.3125 C-8.92671875 28.10978516 -9.4784375 28.90707031 -10.046875 29.72851562 C-13.21254881 34.14633976 -15.67140408 37.20959177 -21 39 C-26.14817855 39.80259525 -31.23581853 39.97131234 -35.6875 37 C-36.450625 36.34 -37.21375 35.68 -38 35 C-36.99605254 22.77009461 -25.83568444 12.84671239 -17 5 C-11.33256601 0.78910589 -7.08608668 -1.65844582 0 0 Z " fill="#090808" transform="translate(206,227)"/>
<path d="M0 0 C4.53102713 1.95302894 4.53102713 1.95302894 6 5 C7.29040773 13.65984559 6.57624543 21.43648325 2 29 C1.4225 30.093125 0.845 31.18625 0.25 32.3125 C-2.69759872 35.83324292 -5.6146284 37.66139406 -10 39 C-13.6875 39.125 -13.6875 39.125 -17 38 C-20.83025008 34.25486659 -23.88011827 30.5400371 -24.06640625 25.0390625 C-23.54713968 16.06991266 -19.08829417 8.4087307 -13 2 C-8.70585157 -0.86276562 -5.03120172 -0.68642752 0 0 Z " fill="#090908" transform="translate(428,102)"/>
<path d="M0 0 C3.4375 1.4375 3.4375 1.4375 6 4 C8.34408351 11.91965356 3.44863448 20.10273103 0 27 C-0.66 27 -1.32 27 -2 27 C-2.165 27.70125 -2.33 28.4025 -2.5 29.125 C-5.30967289 34.51020637 -10.00622679 37.35793744 -15.6875 39.1875 C-19 39 -19 39 -21.9375 37.125 C-24.7547037 32.85650954 -24.82383175 29.97378797 -24 25 C-21.59202811 15.66406428 -17.1774164 6.13374653 -8.7890625 0.8125 C-5.65359332 -0.61146854 -3.35968359 -0.54976641 0 0 Z " fill="#080807" transform="translate(284,278)"/>
<path d="M0 0 C3.25920481 1.79256264 3.81052889 2.43158667 5 6 C5.53032052 12.97575457 5.60932483 18.90148564 2 25 C-0.625 27.875 -0.625 27.875 -3 30 C-3.33 30.33 -3.66 30.66 -4 31 C-12.97718911 31.4415011 -12.97718911 31.4415011 -16 29 C-17.25 26.375 -17.25 26.375 -18 24 C-18.66 24 -19.32 24 -20 24 C-20.55353075 10.18223235 -20.55353075 10.18223235 -17 5 C-16.34 5 -15.68 5 -15 5 C-14.7525 4.38125 -14.505 3.7625 -14.25 3.125 C-11.03197537 -2.34564187 -5.40926321 -1.22305032 0 0 Z " fill="#070707" transform="translate(610,101)"/>
<path d="M0 0 C2.3191541 1.77801815 2.87669774 3.19777419 3.31640625 6.05859375 C3.60185613 11.5189738 2.71617447 14.78163979 -1 19 C-3.98995138 21.49162615 -6.31686415 22.20760941 -10.125 22.375 C-14 22 -14 22 -15.734375 20.76953125 C-17.87431133 17.77758323 -17.23453345 15.16138423 -16.78125 11.6484375 C-15.45082056 7.13828171 -12.56581611 3.98189426 -9 1 C-5.70024471 -0.09991843 -3.45570193 -0.35996895 0 0 Z " fill="#0D0D0C" transform="translate(381,260)"/>
<path d="M0 0 C2 1.0625 2 1.0625 3 3 C3.86789698 7.82164991 2.88394129 10.70671928 0.375 14.75 C-2.30062935 18.4455163 -4.55186509 20.58038248 -9 22 C-11.6875 22.375 -11.6875 22.375 -14 22 C-16.17960509 20.35213431 -16.91577655 19.44084528 -17.43359375 16.73046875 C-17.44241537 10.98759665 -17.01156843 7.44525151 -13 3 C-8.76784644 -0.52679463 -5.29592611 -0.51250898 0 0 Z " fill="#0A0A0A" transform="translate(279,98)"/>
<path d="M0 0 C2.84069334 2.84069334 2.78139786 5.26413033 3.09375 9.1796875 C2.96279707 13.11918826 1.74247098 16.17189325 0.25 19.7890625 C-1.5784759 24.48595998 -2.88931492 29.31248115 -4.24853516 34.16235352 C-5.23346998 37.61680308 -6.21729652 40.8680026 -8 44 C-8.33 42.02 -8.66 40.04 -9 38 C-9.99 38.495 -9.99 38.495 -11 39 C-10.85831863 37.56208484 -10.71148957 36.1246763 -10.5625 34.6875 C-10.48128906 33.88699219 -10.40007812 33.08648437 -10.31640625 32.26171875 C-10 30 -10 30 -9 27 C-8.34 27 -7.68 27 -7 27 C-6.896875 26.46375 -6.79375 25.9275 -6.6875 25.375 C-5.81907303 22.37497956 -4.44379704 19.7620465 -3 17 C-2.34 17 -1.68 17 -1 17 C-0.83141902 14.9168207 -0.66520745 12.83344956 -0.5 10.75 C-0.4071875 9.58984375 -0.314375 8.4296875 -0.21875 7.234375 C-0.05595356 4.82731342 0 2.41256049 0 0 Z " fill="#0D0B09" transform="translate(333,257)"/>
<path d="M0 0 C2.83596831 2.83596831 2.7780812 5.25237011 3.09765625 9.16015625 C2.92482192 14.18617855 0.89159581 18.40435247 -1 23 C-1.76695359 25.2233907 -2.51728627 27.45259181 -3.25 29.6875 C-3.58515625 30.70199219 -3.9203125 31.71648437 -4.265625 32.76171875 C-4.50796875 33.50035156 -4.7503125 34.23898437 -5 35 C-5.986216 31.91721293 -5.97412763 30.02988392 -5.0625 26.9375 C-4.32617654 24.39694023 -4 22.69602824 -4 20 C-3.67 19.01 -3.34 18.02 -3 17 C-2.34 17 -1.68 17 -1 17 C-0.83141902 14.9168207 -0.66520745 12.83344956 -0.5 10.75 C-0.4071875 9.58984375 -0.314375 8.4296875 -0.21875 7.234375 C-0.05595356 4.82731342 0 2.41256049 0 0 Z " fill="#63615D" transform="translate(333,257)"/>
<path d="M0 0 C1.32 0 2.64 0 4 0 C4 0.66 4 1.32 4 2 C9.61 2.33 15.22 2.66 21 3 C16.33468387 6.11021075 11.46382613 5.61189094 6 5 C3.41091939 3.94624896 2.09068236 2.91645883 0 1 C0 0.67 0 0.34 0 0 Z " fill="#B3B4B3" transform="translate(603,340)"/>
<path d="M0 0 C-0.54269531 0.36351562 -1.08539062 0.72703125 -1.64453125 1.1015625 C-6.15418557 4.27050878 -8.97574073 6.68631943 -11 12 C-11.66 12 -12.32 12 -13 12 C-11.48268615 7.44805844 -9.06964403 3.65996019 -6 0 C-3.50907189 -1.24546405 -2.58919267 -0.7767578 0 0 Z " fill="#CBC7C1" transform="translate(716,287)"/>
<path d="M0 0 C0.99 0.33 1.98 0.66 3 1 C2.13375 1.53625 1.2675 2.0725 0.375 2.625 C-2.13316622 4.27729908 -4.16874986 6.08673014 -6.25 8.25 C-7.1575 9.1575 -8.065 10.065 -9 11 C-9.66 11 -10.32 11 -11 11 C-9.63310446 7.84930578 -8.14342115 5.99108226 -5.5 3.8125 C-4.8915625 3.30332031 -4.283125 2.79414063 -3.65625 2.26953125 C-2 1 -2 1 0 0 Z " fill="#DDD9D7" transform="translate(680,231)"/>
<path d="M0 0 C0.83265381 0.00523682 1.66530762 0.01047363 2.52319336 0.01586914 C3.42231445 0.0190918 4.32143555 0.02231445 5.24780273 0.02563477 C6.66609375 0.03820312 6.66609375 0.03820312 8.11303711 0.05102539 C9.06243164 0.05553711 10.01182617 0.06004883 10.98999023 0.06469727 C13.34356776 0.07652429 15.69702188 0.09300514 18.05053711 0.11352539 C18.05053711 0.44352539 18.05053711 0.77352539 18.05053711 1.11352539 C16.18848633 1.15219727 16.18848633 1.15219727 14.28881836 1.19165039 C12.64685683 1.24794621 11.00493111 1.30529322 9.36303711 1.36352539 C8.13810547 1.38479492 8.13810547 1.38479492 6.88842773 1.40649414 C1.70006926 1.61654914 -1.14804954 2.24243236 -4.94946289 6.11352539 C-2.65763199 0.15476504 -2.65763199 0.15476504 0 0 Z " fill="#303234" transform="translate(529.949462890625,85.886474609375)"/>
<path d="M0 0 C-1.53643852 3.68069887 -3.78150945 5.98775204 -6.625 8.75 C-7.85089844 9.94882812 -7.85089844 9.94882812 -9.1015625 11.171875 C-9.72804688 11.77515625 -10.35453125 12.3784375 -11 13 C-11 8.89253434 -9.36039564 7.80245139 -6.625 4.8125 C-5.81289062 3.91144531 -5.00078125 3.01039062 -4.1640625 2.08203125 C-2 0 -2 0 0 0 Z " fill="#CECBC5" transform="translate(83,39)"/>
<path d="M0 0 C0.66 0.33 1.32 0.66 2 1 C1.09515208 2.15518918 0.1755794 3.29885406 -0.75 4.4375 C-1.26046875 5.07558594 -1.7709375 5.71367188 -2.296875 6.37109375 C-4 8 -4 8 -6.140625 8.53515625 C-7.06101563 8.76525391 -7.06101563 8.76525391 -8 9 C-8.33 9.99 -8.66 10.98 -9 12 C-9.66 11.67 -10.32 11.34 -11 11 C-10.34 10.01 -9.68 9.02 -9 8 C-8.34 8 -7.68 8 -7 8 C-6.67 7.01 -6.34 6.02 -6 5 C-4.12382302 3.15500602 -2.07262391 1.6316401 0 0 Z " fill="#CECDC9" transform="translate(228,30)"/>
<path d="M0 0 C1.10844919 3.32534757 0.84454356 5.62182575 0 9 C0.99 9 1.98 9 3 9 C2.67 11.64 2.34 14.28 2 17 C1.67 17 1.34 17 1 17 C0.67 15.02 0.34 13.04 0 11 C-0.99 11.495 -0.99 11.495 -2 12 C-1.85831863 10.56208484 -1.71148957 9.1246763 -1.5625 7.6875 C-1.48128906 6.88699219 -1.40007812 6.08648437 -1.31640625 5.26171875 C-1 3 -1 3 0 0 Z " fill="#62615E" transform="translate(324,284)"/>
<path d="M0 0 C1.65 0.33 3.3 0.66 5 1 C4.01 1.33 3.02 1.66 2 2 C0.89163577 3.88316159 0.89163577 3.88316159 0 6 C-0.99 7.485 -0.99 7.485 -2 9 C-2.66 9 -3.32 9 -4 9 C-2.94124926 5.59687262 -1.99097846 2.98646769 0 0 Z " fill="#CAC7C2" transform="translate(225,372)"/>
<path d="M0 0 C0.66 0.33 1.32 0.66 2 1 C1.27683594 1.67095703 1.27683594 1.67095703 0.5390625 2.35546875 C-4.30796815 6.95594955 -4.30796815 6.95594955 -7 13 C-7.66 13 -8.32 13 -9 13 C-7.36088911 7.1265193 -5.109884 3.40658933 0 0 Z " fill="#C4C3BD" transform="translate(599,357)"/>
<path d="M0 0 C-1.38188453 3.21043882 -2.92421903 5.04936365 -5.625 7.25 C-6.57246094 8.03117187 -6.57246094 8.03117187 -7.5390625 8.828125 C-8.02117188 9.21484375 -8.50328125 9.6015625 -9 10 C-9 7 -9 7 -7.5390625 5.17578125 C-6.90742187 4.56089844 -6.27578125 3.94601563 -5.625 3.3125 C-4.68527344 2.37857422 -4.68527344 2.37857422 -3.7265625 1.42578125 C-2 0 -2 0 0 0 Z " fill="#C8C5C0" transform="translate(70,249)"/>
<path d="M0 0 C0.66 0.33 1.32 0.66 2 1 C1.06409496 2.1055189 0.12620142 3.20935453 -0.8125 4.3125 C-1.33457031 4.92738281 -1.85664062 5.54226562 -2.39453125 6.17578125 C-3.87172469 7.85424679 -5.40039131 9.43882034 -7 11 C-7.66 10.67 -8.32 10.34 -9 10 C-7.8758824 8.70756532 -6.75067408 7.41607925 -5.625 6.125 C-4.99851562 5.40570313 -4.37203125 4.68640625 -3.7265625 3.9453125 C-2.52573166 2.5923402 -1.2791655 1.2791655 0 0 Z " fill="#C3BFBA" transform="translate(544,241)"/>
<path d="M0 0 C-1.55603771 3.81936528 -3.95604931 6.26044438 -7 9 C-7.66 9 -8.32 9 -9 9 C-7.45665977 5.21180126 -4.44676575 0 0 0 Z " fill="#D0CECB" transform="translate(431,239)"/>
<path d="M0 0 C0.66 0.33 1.32 0.66 2 1 C1.16855469 1.81404297 1.16855469 1.81404297 0.3203125 2.64453125 C-0.76636719 3.71767578 -0.76636719 3.71767578 -1.875 4.8125 C-2.59429687 5.52019531 -3.31359375 6.22789063 -4.0546875 6.95703125 C-6.15358937 9.04399194 -6.15358937 9.04399194 -8 12 C-7.49572053 7.58755464 -5.98672249 5.25025683 -3 2 C-2.01 1.34 -1.02 0.68 0 0 Z " fill="#2E2F2F" transform="translate(123,66)"/>
<path d="M0 0 C0.66 0.33 1.32 0.66 2 1 C1.04956626 2.33897583 0.08940853 3.67105427 -0.875 5 C-1.40867188 5.7425 -1.94234375 6.485 -2.4921875 7.25 C-3.23855469 8.11625 -3.23855469 8.11625 -4 9 C-4.66 9 -5.32 9 -6 9 C-4.47291037 5.56404834 -2.40072955 2.88087546 0 0 Z " fill="#C9C9C0" transform="translate(247,258)"/>
<path d="M0 0 C0.598125 0.309375 1.19625 0.61875 1.8125 0.9375 C4.08956772 2.10209704 4.08956772 2.10209704 7 3 C6.34 3 5.68 3 5 3 C5 3.66 5 4.32 5 5 C3.02 5 1.04 5 -1 5 C-0.67 3.35 -0.34 1.7 0 0 Z " fill="#403A36" transform="translate(647,121)"/>
<path d="M0 0 C0.66 0 1.32 0 2 0 C0.44499019 3.81684226 -2.03595495 6.19195732 -5 9 C-5.66 8.67 -6.32 8.34 -7 8 C-5.88200014 6.66079162 -4.75538103 5.32877444 -3.625 4 C-2.68527344 2.88625 -2.68527344 2.88625 -1.7265625 1.75 C-1.15679688 1.1725 -0.58703125 0.595 0 0 Z " fill="#D0CBC6" transform="translate(525,37)"/>
<path d="M0 0 C0 3.3 0 6.6 0 10 C-0.66 8.68 -1.32 7.36 -2 6 C-2.66 6 -3.32 6 -4 6 C-4 4.68 -4 3.36 -4 2 C-1 0 -1 0 0 0 Z " fill="#272526" transform="translate(325,294)"/>
<path d="M0 0 C0.66 0.33 1.32 0.66 2 1 C0.88200014 2.33920838 -0.24461897 3.67122556 -1.375 5 C-2.00148438 5.7425 -2.62796875 6.485 -3.2734375 7.25 C-4.12808594 8.11625 -4.12808594 8.11625 -5 9 C-5.66 9 -6.32 9 -7 9 C-6.67 7.68 -6.34 6.36 -6 5 C-5.34 5 -4.68 5 -4 5 C-3.71125 4.360625 -3.4225 3.72125 -3.125 3.0625 C-2 1 -2 1 0 0 Z " fill="#38393B" transform="translate(599,101)"/>
<path d="M0 0 C1.37871915 3.82977542 0.87113444 7.07989501 0 11 C-0.99 11.66 -1.98 12.32 -3 13 C-2.45144652 8.428721 -1.58255197 4.32564205 0 0 Z " fill="#BCBAB2" transform="translate(496,92)"/>
<path d="M0 0 C0.66 0.66 1.32 1.32 2 2 C-0.64 4.97 -3.28 7.94 -6 11 C-6.66 10.67 -7.32 10.34 -8 10 C-7.59007812 9.52949219 -7.18015625 9.05898438 -6.7578125 8.57421875 C-6.21898437 7.95160156 -5.68015625 7.32898438 -5.125 6.6875 C-4.59132813 6.07261719 -4.05765625 5.45773437 -3.5078125 4.82421875 C-1.8359553 2.86501788 -1.8359553 2.86501788 0 0 Z " fill="#DCD8D3" transform="translate(695,314)"/>
<path d="M0 0 C0.66 0 1.32 0 2 0 C0.4169423 4.2742558 -2.50568404 6.26531794 -6 9 C-4.4722133 5.56247993 -2.49818944 2.81046312 0 0 Z " fill="#363738" transform="translate(272,281)"/>
<path d="M0 0 C2.45526122 2.45526122 2.41457598 3.60629818 2.75 7 C2.84796875 7.886875 2.9459375 8.77375 3.046875 9.6875 C3 12 3 12 1 14 C-0.04976964 10.85069107 -0.10131595 8.61185544 -0.0625 5.3125 C-0.05347656 4.31863281 -0.04445313 3.32476562 -0.03515625 2.30078125 C-0.02355469 1.54152344 -0.01195312 0.78226562 0 0 Z " fill="#ABA7A2" transform="translate(333,257)"/>
<path d="M0 0 C0.33 0.66 0.66 1.32 1 2 C-0.98 4.31 -2.96 6.62 -5 9 C-5.99 8.34 -6.98 7.68 -8 7 C-6.35 6.34 -4.7 5.68 -3 5 C-3 4.34 -3 3.68 -3 3 C-2.34 3 -1.68 3 -1 3 C-0.67 2.01 -0.34 1.02 0 0 Z " fill="#CDCCCA" transform="translate(483,129)"/>
<path d="M0 0 C0.66 0.33 1.32 0.66 2 1 C-0.31 3.64 -2.62 6.28 -5 9 C-5.66 8.67 -6.32 8.34 -7 8 C-4.69 5.36 -2.38 2.72 0 0 Z " fill="#CDC7C5" transform="translate(574,77)"/>
<path d="M0 0 C0.33 1.32 0.66 2.64 1 4 C-0.9375 6.25 -0.9375 6.25 -3 8 C-3.66 7.67 -4.32 7.34 -5 7 C-3.35 4.69 -1.7 2.38 0 0 Z " fill="#C8C6C0" transform="translate(201,248)"/>
<path d="M0 0 C0.66 0.33 1.32 0.66 2 1 C-0.64 3.64 -3.28 6.28 -6 9 C-6 6 -6 6 -3.5625 3.375 C-2.716875 2.59125 -1.87125 1.8075 -1 1 C-0.67 0.67 -0.34 0.34 0 0 Z " fill="#242426" transform="translate(175,63)"/>
<path d="M0 0 C0.33 0.99 0.66 1.98 1 3 C-1 6 -1 6 -4 7 C-3.39816251 4.97954558 -2.72693904 2.97888961 -2 1 C-1.34 0.67 -0.68 0.34 0 0 Z " fill="#222120" transform="translate(329,279)"/>
<path d="M0 0 C0.66 0.33 1.32 0.66 2 1 C1.21654285 2.17219543 0.42297164 3.33763668 -0.375 4.5 C-0.81585938 5.1496875 -1.25671875 5.799375 -1.7109375 6.46875 C-2.13632812 6.9740625 -2.56171875 7.479375 -3 8 C-3.66 8 -4.32 8 -5 8 C-3.8141763 4.62496331 -2.72426311 2.35277269 0 0 Z " fill="#D5D0C5" transform="translate(39,323)"/>
<path d="M0 0 C-0.5775 0.2475 -1.155 0.495 -1.75 0.75 C-4.13449889 1.93990475 -4.13449889 1.93990475 -6.125 4.125 C-6.74375 4.74375 -7.3625 5.3625 -8 6 C-8.66 6 -9.32 6 -10 6 C-8.26240984 0.78722952 -5.3189028 -0.4432419 0 0 Z " fill="#3C3C3E" transform="translate(471,265)"/>
<path d="M0 0 C0.66 0.33 1.32 0.66 2 1 C-1.465 3.97 -1.465 3.97 -5 7 C-5 6.01 -5 5.02 -5 4 C-2.5 1.8125 -2.5 1.8125 0 0 Z " fill="#3E4041" transform="translate(418,102)"/>
<path d="M0 0 C0.66 0 1.32 0 2 0 C0.70700306 2.88437779 -0.65941363 4.87219421 -3 7 C-3.66 6.67 -4.32 6.34 -5 6 C-3.38405168 3.95880212 -1.7143618 1.95927063 0 0 Z " fill="#3C3C3D" transform="translate(236,80)"/>
</svg>
