<?xml version="1.0" standalone="no"?>
<!DOCTYPE svg PUBLIC "-//W3C//DTD SVG 20010904//EN"
 "http://www.w3.org/TR/2001/REC-SVG-20010904/DTD/svg10.dtd">
<svg version="1.0" xmlns="http://www.w3.org/2000/svg"
 width="742.000000pt" height="456.000000pt" viewBox="0 0 742.000000 456.000000"
 preserveAspectRatio="xMidYMid meet">

<g transform="translate(0.000000,456.000000) scale(0.100000,-0.100000)"
fill="#000000" stroke="none">
<path d="M2361 4420 c-84 -31 -158 -79 -215 -140 -28 -31 -76 -70 -106 -88
-30 -18 -71 -52 -90 -77 -36 -47 -50 -55 -50 -30 0 7 -5 38 -11 66 -10 44 -21
62 -66 105 -65 64 -110 86 -239 121 -90 24 -115 27 -279 27 -166 -1 -187 -3
-270 -28 -164 -49 -265 -114 -399 -258 -143 -154 -247 -337 -277 -489 -15 -76
-6 -226 17 -294 55 -162 168 -244 345 -253 111 -5 178 10 277 64 34 19 64 34
67 34 2 0 6 -15 10 -32 4 -18 8 -40 11 -48 2 -9 -15 -36 -39 -61 -24 -26 -68
-97 -105 -170 -54 -107 -64 -136 -74 -209 -10 -77 -9 -92 11 -157 43 -143 160
-229 327 -242 89 -7 106 -14 83 -35 -11 -10 -28 -11 -74 -5 -33 5 -114 12
-180 15 -100 5 -136 2 -213 -15 -120 -26 -180 -59 -267 -146 -224 -223 -286
-328 -288 -484 -1 -62 4 -100 17 -137 l19 -51 -36 -60 c-21 -33 -58 -87 -83
-119 -64 -82 -102 -162 -116 -242 -10 -59 -9 -83 6 -157 19 -101 48 -161 105
-227 88 -99 190 -133 381 -126 240 10 369 84 562 326 122 152 181 237 279 402
44 74 84 139 89 144 7 7 10 -39 10 -130 0 -219 34 -335 124 -427 25 -27 62
-55 81 -63 46 -19 185 -19 231 1 41 17 41 24 3 -80 -27 -75 -36 -198 -19 -263
61 -225 265 -357 501 -322 94 13 147 34 227 89 85 58 138 120 250 286 104 155
163 265 202 373 24 67 36 74 66 41 24 -27 94 -62 163 -83 64 -19 242 -22 323
-5 62 12 151 44 188 66 25 14 29 14 53 -1 100 -66 325 -59 426 14 27 18 28 23
18 49 -11 30 2 61 25 61 6 0 23 9 39 21 l29 20 10 -26 c5 -14 12 -36 16 -49 8
-34 61 -81 119 -108 41 -18 67 -22 140 -22 99 1 162 18 228 63 100 66 86 62
126 36 49 -32 181 -71 268 -80 127 -12 310 22 401 75 19 12 37 19 39 16 8 -8
-8 -45 -32 -74 -45 -54 -103 -176 -120 -254 -16 -73 -16 -83 -1 -151 12 -51
29 -93 59 -138 37 -57 51 -68 121 -104 l79 -40 161 0 c154 0 165 1 232 28 133
54 244 157 325 302 18 33 47 80 63 105 17 25 51 87 76 137 36 74 51 95 74 103
73 26 262 257 334 408 15 31 45 84 66 117 58 89 104 194 115 262 15 92 -1 140
-56 175 -30 18 -46 20 -124 16 -49 -2 -89 -2 -89 1 1 21 34 125 69 214 31 80
41 119 41 163 0 55 -2 59 -46 102 -26 24 -71 56 -102 69 -46 22 -64 25 -126
21 -123 -8 -229 -70 -337 -196 l-54 -62 -5 62 c-3 35 -11 73 -17 84 -16 28
-96 81 -144 95 -79 24 -218 -24 -299 -104 l-29 -29 -48 41 c-77 64 -124 81
-228 80 -200 0 -335 -65 -482 -232 -47 -54 -59 -63 -65 -49 -3 9 -14 39 -23
66 -21 59 -63 108 -122 143 -82 47 -224 41 -322 -14 l-43 -25 -48 26 c-60 33
-177 49 -264 37 -79 -11 -183 -59 -223 -101 l-31 -33 -43 42 c-106 101 -337
110 -523 20 -62 -30 -116 -65 -150 -99 -19 -18 -20 -18 -55 -1 -94 47 -207 46
-274 -1 l-27 -20 -34 30 c-59 52 -120 89 -156 96 -50 9 -135 -9 -236 -50 -47
-18 -89 -34 -95 -34 -6 0 -7 26 -4 68 10 113 2 104 122 136 59 16 141 46 180
67 l73 37 24 -19 c14 -11 50 -31 81 -45 48 -22 69 -26 158 -25 145 1 248 31
325 96 16 14 36 25 42 25 7 0 34 -20 60 -44 74 -69 184 -90 330 -62 68 13 101
26 168 66 l82 51 30 -21 c112 -80 341 -80 465 0 66 43 71 44 102 22 59 -42
101 -52 213 -52 142 0 265 38 383 118 l28 19 95 -38 c53 -22 122 -46 154 -54
68 -18 227 -20 302 -4 84 18 188 74 270 143 56 48 88 68 124 77 73 18 152 63
225 128 86 78 118 125 129 194 6 40 22 76 55 126 54 82 65 115 65 194 0 96
-52 145 -172 162 -46 7 -48 9 -48 39 0 45 -34 172 -64 239 -33 76 -117 159
-199 198 -79 37 -210 48 -337 30 -91 -14 -133 -31 -225 -95 -33 -23 -65 -45
-72 -49 -8 -5 -11 8 -10 44 2 48 -1 53 -37 85 -22 19 -54 38 -70 42 -30 8 -31
9 -28 64 2 30 -1 73 -7 94 -12 44 -61 97 -104 113 -49 19 -129 13 -179 -12
-54 -28 -206 -165 -252 -228 -25 -33 -43 -48 -67 -53 -18 -3 -48 -20 -65 -37
-28 -27 -37 -31 -66 -25 -18 4 -66 10 -106 13 -64 5 -78 2 -126 -21 -29 -14
-58 -26 -63 -26 -6 0 -30 11 -54 24 -113 62 -303 54 -465 -19 -82 -37 -196
-139 -272 -242 -26 -35 -48 -59 -50 -54 -7 20 79 185 137 266 73 100 90 133
97 189 8 57 0 87 -33 127 -84 99 -307 110 -435 20 -76 -53 -207 -199 -322
-359 l-39 -53 -21 19 c-48 44 -108 65 -198 70 -49 2 -88 6 -88 9 0 2 7 18 16
34 35 68 26 267 -16 347 -58 112 -268 181 -399 132z m219 -109 c53 -28 117
-128 125 -195 12 -92 -1 -135 -55 -187 -26 -25 -73 -58 -106 -74 -32 -15 -74
-34 -92 -42 -45 -21 -124 -94 -178 -164 -70 -91 -127 -209 -189 -388 -72 -211
-125 -337 -181 -433 -39 -67 -51 -79 -100 -103 -30 -15 -88 -57 -128 -95 -40
-37 -91 -74 -112 -81 -24 -9 -80 -14 -144 -14 -91 0 -111 3 -150 23 -104 55
-134 108 -134 242 0 82 3 103 26 152 43 93 85 147 121 156 43 12 52 7 73 -39
23 -52 38 -59 126 -59 59 0 84 5 126 26 78 39 152 126 196 229 20 48 36 94 36
102 0 9 -27 -10 -65 -46 -100 -93 -189 -129 -287 -116 -100 14 -151 80 -164
212 -12 130 31 340 93 455 33 61 26 78 -31 78 -60 0 -181 -62 -213 -109 -41
-61 -26 -169 28 -193 24 -10 29 -19 29 -46 0 -18 -5 -43 -11 -55 -26 -49 -91
-115 -141 -143 -49 -27 -61 -29 -153 -29 -84 0 -107 4 -147 23 -110 54 -168
168 -168 328 0 111 21 185 79 283 76 128 194 222 335 267 203 65 538 32 681
-66 76 -53 98 -84 103 -146 6 -70 -13 -111 -69 -150 -63 -44 -105 -158 -89
-245 12 -66 56 -83 125 -49 55 27 139 131 195 240 105 208 294 406 435 458 49
17 136 14 175 -7z m2847 -126 c27 -30 29 -66 8 -125 -8 -23 -15 -58 -15 -77 0
-39 24 -53 95 -53 26 0 50 -6 59 -16 33 -32 11 -131 -40 -182 l-34 -34 -102 3
c-57 2 -109 0 -116 -5 -23 -14 -63 -119 -73 -196 -13 -90 -6 -194 17 -227 35
-54 107 -63 184 -22 67 36 81 55 107 147 41 146 95 244 193 343 133 135 262
187 433 176 194 -13 318 -154 341 -385 4 -45 -4 -158 -16 -213 -2 -8 7 -15 19
-17 16 -2 38 11 76 47 58 55 95 65 129 34 27 -25 24 -97 -9 -162 -54 -110
-210 -224 -327 -239 -35 -4 -55 -18 -127 -88 -67 -64 -106 -92 -175 -125 -87
-42 -92 -43 -189 -44 -82 0 -109 4 -148 22 -56 26 -150 112 -167 153 -7 17
-15 30 -18 30 -2 0 -39 -33 -81 -73 -204 -194 -470 -225 -572 -66 -18 27 -33
49 -33 49 -1 0 -27 -25 -58 -55 -32 -30 -86 -69 -120 -86 -53 -27 -77 -33
-150 -37 -80 -4 -91 -2 -132 22 -56 33 -84 67 -98 123 l-10 43 -88 -88 c-69
-71 -98 -94 -142 -110 -119 -44 -222 -38 -291 19 -38 32 -97 138 -97 176 0 37
-16 27 -59 -36 -71 -104 -168 -173 -272 -195 -80 -16 -150 -6 -196 30 -34 26
-72 92 -73 126 0 34 -22 28 -78 -22 -31 -29 -93 -70 -137 -91 -240 -116 -452
-85 -552 79 -106 173 -126 384 -57 592 60 178 204 355 350 428 105 53 264 68
342 32 76 -35 103 -60 133 -126 23 -50 29 -78 29 -132 0 -139 -52 -238 -165
-314 -111 -74 -203 -90 -284 -48 -46 23 -71 18 -71 -15 0 -55 39 -113 95 -142
93 -49 289 20 379 134 37 45 95 203 147 395 54 202 109 356 158 437 51 86 144
173 207 195 127 43 254 -7 254 -101 0 -45 -17 -75 -91 -164 -139 -166 -232
-339 -275 -508 -28 -110 -31 -177 -8 -210 15 -21 22 -23 69 -18 54 5 122 34
143 60 7 8 21 50 33 93 54 215 217 442 367 516 55 27 77 32 165 36 90 4 109 2
154 -18 28 -12 61 -33 74 -46 32 -34 76 -31 135 9 85 58 157 55 213 -9 43 -48
40 -82 -14 -214 -57 -138 -97 -292 -93 -356 3 -46 5 -49 33 -52 17 -1 44 6 62
17 34 21 93 95 93 117 0 7 23 82 50 167 28 85 50 166 50 180 0 21 -8 28 -47
43 -72 26 -79 35 -64 84 16 56 37 74 113 99 72 24 110 57 177 159 51 76 103
129 145 148 45 21 106 11 133 -21z m-3222 -1464 c22 -10 68 -47 102 -83 33
-35 76 -76 95 -90 32 -25 33 -27 36 -114 2 -49 -4 -163 -13 -253 l-16 -165
-35 -39 c-90 -99 -182 -277 -219 -420 -36 -141 -56 -306 -49 -388 6 -63 5 -72
-16 -93 -12 -14 -45 -34 -73 -46 -87 -38 -197 -14 -237 52 -43 71 -49 212 -19
422 l13 88 -27 24 c-30 25 -142 64 -187 64 -15 0 -34 -8 -43 -17 -8 -10 -51
-88 -94 -173 -137 -271 -234 -420 -348 -535 -127 -129 -205 -173 -339 -195
-44 -7 -88 -7 -138 0 -195 27 -298 155 -285 356 7 116 40 186 101 215 l44 22
54 -23 c72 -31 189 -39 258 -16 58 19 141 67 184 105 76 69 281 362 272 388
-5 13 -18 15 -65 10 -83 -7 -113 -26 -133 -84 -26 -73 -103 -163 -167 -195
-43 -22 -69 -28 -118 -28 -102 0 -147 29 -197 128 -25 49 -23 163 4 235 66
176 184 255 394 265 120 5 205 -6 335 -44 46 -14 89 -23 97 -20 7 3 50 60 95
128 181 272 310 419 417 476 111 59 243 77 317 43z m4827 -496 c53 -38 59 -75
27 -161 -65 -176 -104 -304 -155 -513 -31 -127 -54 -235 -50 -238 16 -16 82
71 138 182 71 142 100 183 140 199 39 17 86 8 103 -18 30 -46 -29 -194 -147
-369 -82 -122 -135 -176 -228 -236 -53 -35 -82 -60 -92 -83 -8 -18 -39 -89
-69 -158 -89 -207 -160 -299 -280 -364 -74 -41 -141 -56 -250 -56 -110 0 -183
18 -229 57 -92 77 -106 251 -31 409 47 101 112 140 286 173 97 19 206 63 240
97 23 23 37 50 48 97 33 130 14 141 -58 36 -51 -74 -82 -102 -155 -140 -56
-28 -158 -31 -206 -6 -40 20 -82 70 -90 105 -11 45 -13 44 -72 -8 -63 -57
-168 -113 -252 -135 -30 -8 -94 -15 -142 -15 -124 0 -184 24 -267 106 l-64 64
-66 -63 c-86 -81 -165 -120 -252 -125 -116 -7 -165 31 -193 152 -34 143 -17
335 48 560 24 82 25 91 11 113 -32 49 -85 17 -140 -85 -79 -148 -103 -229
-124 -438 -13 -127 -42 -222 -78 -256 -55 -53 -140 -71 -225 -48 -47 13 -75
49 -84 106 -3 24 -8 44 -11 44 -3 0 -30 -23 -61 -51 -68 -60 -189 -123 -269
-139 -63 -14 -205 -8 -263 9 -54 17 -129 80 -166 141 -89 144 -82 354 20 628
85 228 281 377 496 375 175 -1 270 -101 270 -283 0 -69 -21 -159 -46 -198 -28
-44 -119 -117 -183 -148 -70 -34 -156 -43 -201 -20 -38 19 -50 14 -50 -20 0
-32 21 -73 54 -103 72 -67 246 -19 363 101 41 43 42 44 92 261 57 246 90 327
155 383 52 45 102 57 189 49 90 -9 134 -28 155 -66 37 -66 33 -65 93 -20 101
77 185 99 267 70 38 -13 99 -89 113 -143 15 -53 6 -191 -20 -319 -21 -105 -20
-127 9 -127 33 0 60 35 86 110 85 256 256 471 410 516 29 8 92 15 141 16 72 1
96 -3 136 -22 125 -59 170 -225 101 -378 -20 -46 -30 -56 -76 -77 -64 -30
-112 -32 -155 -5 -37 22 -37 21 -21 89 17 74 2 101 -55 101 -34 0 -49 -6 -69
-27 -48 -52 -68 -105 -70 -195 -2 -72 1 -89 22 -127 58 -103 153 -135 272 -90
37 13 77 38 99 60 39 39 52 75 140 380 48 166 85 240 142 277 35 23 51 27 113
27 63 0 76 -3 99 -25 26 -24 27 -28 22 -105 -3 -44 -20 -161 -37 -260 -35
-211 -36 -239 -10 -282 41 -68 123 -27 154 77 9 30 16 67 16 83 0 66 57 244
115 357 34 66 93 130 139 151 31 14 60 18 118 16 67 -2 82 -6 120 -32z m-4180
-135 c77 -24 137 -65 167 -114 26 -41 36 -43 71 -15 91 73 173 98 211 63 30
-27 49 -68 49 -105 0 -21 -19 -67 -55 -128 -49 -87 -58 -112 -96 -276 -111
-483 -186 -722 -276 -884 -55 -97 -174 -226 -241 -260 -152 -77 -331 -59 -417
42 -56 65 -78 137 -72 232 7 113 53 211 89 189 7 -4 30 -22 52 -38 82 -66 195
-30 263 83 31 52 62 155 50 167 -3 3 -23 -12 -46 -35 -56 -56 -96 -74 -161
-74 -90 0 -163 51 -210 147 -75 151 -44 399 80 646 122 244 250 347 471 379 4
1 36 -8 71 -19z"/>
<path d="M2694 3564 c-66 -34 -99 -155 -52 -188 30 -21 56 -20 95 4 67 41 108
140 71 176 -22 22 -78 26 -114 8z"/>
<path d="M5976 3530 c-48 -42 -64 -75 -72 -144 -8 -64 7 -94 59 -126 101 -62
195 33 185 185 -5 80 -25 105 -90 112 -40 5 -49 2 -82 -27z"/>
<path d="M4143 3496 c-50 -57 -94 -147 -95 -195 0 -40 29 -108 57 -131 22 -18
85 -16 124 4 60 32 111 144 111 248 0 52 -4 63 -29 89 -25 24 -38 29 -79 29
-47 0 -53 -3 -89 -44z"/>
<path d="M1958 2279 c-75 -39 -229 -204 -277 -297 -15 -28 -2 -48 39 -64 34
-13 142 -13 167 1 25 13 157 195 178 244 45 107 -11 167 -107 116z"/>
<path d="M3734 1951 c-89 -54 -119 -176 -51 -209 23 -11 33 -10 72 7 82 36
114 142 60 196 -29 30 -41 31 -81 6z"/>
<path d="M2738 1754 c-47 -33 -91 -102 -118 -179 -33 -94 -22 -153 30 -175 61
-25 149 42 206 157 69 140 57 210 -38 220 -35 3 -50 -1 -80 -23z"/>
</g>
</svg>
